<svg height="512" width="512" xmlns="http://www.w3.org/2000/svg"><path d="m421.4154358 309.5281982c-7.2089539 0-14.1868896.9381104-20.9093018 2.5398254l-.6360474-1.0049133-83.5416565-131.8939972c18.5275879-16.6985321 30.256134-40.8878632 30.256134-67.8939896 0-50.3664207-40.5557556-91.1966934-90.5845642-91.1966934-50.028183 0-90.5845642 40.8302689-90.5845642 91.1966934 0 27.0061264 11.727951 51.1954575 30.256134 67.8939896l-83.5416641 131.8939972-.6360321 1.0049133c-6.7224274-1.6017151-13.7003708-2.5398254-20.909317-2.5398254-50.0281829 0-90.5845565 40.8302613-90.5845565 91.1966858s40.5563736 91.1966858 90.5845566 91.1966858c50.028801 0 90.5845566-40.8302612 90.5845566-91.1966858 0-34.5073547-19.0447235-64.525116-47.121933-80.0159302l81.1378632-128.098053c12.2763519 6.2573548 26.1139831 9.8609162 40.8149566 9.8609162 14.7009888 0 28.5392151-3.6035614 40.8155518-9.8609161l81.1372681 128.098053c-28.0772095 15.4908142-47.1219482 45.5085754-47.1219482 80.0159302 0 50.3664246 40.5557556 91.1966858 90.5845642 91.1966858 50.0281981-.0000001 90.5845641-40.8302613 90.5845641-91.1966859s-40.556366-91.1966858-90.5845642-91.1966858zm-331.0624848 134.262909c-23.3189163 0-42.2224655-18.9035645-42.2224655-42.2224731s18.9035492-42.2224731 42.2224655-42.2224731 42.2224731 18.9035645 42.2224731 42.2224731-18.9035644 42.2224731-42.2224731 42.2224731z"/></svg>