<?xml version="1.0" encoding="UTF-8"?>
<svg width="153px" height="153px" viewBox="0 0 153 153" version="1.1" xmlns="http://www.w3.org/2000/svg" xmlns:xlink="http://www.w3.org/1999/xlink">
    <title>concrete CMS logo - hand</title>
    <defs>
        <path d="M12.396,0 C5.55,0 -6.66133815e-15,5.551 -6.66133815e-15,12.396 L-6.66133815e-15,12.396 L-6.66133815e-15,139.453 C-6.66133815e-15,146.299 5.55,151.848 12.396,151.848 L12.396,151.848 L139.453,151.848 C146.299,151.848 151.849,146.299 151.849,139.453 L151.849,139.453 L151.849,12.396 C151.849,5.551 146.299,0 139.453,0 L139.453,0 L12.396,0 Z" id="path-1"></path>
        <path d="M46.3478868,13.561 C46.6478868,18.744 45.0138868,50.852 52.0608868,51.848 L52.0608868,51.848 C58.7998868,52.802 58.3398868,20.465 58.3428868,16.071 L58.3428868,16.071 C58.3498868,12.125 59.8868868,1.172 54.5538868,0.141 L54.5538868,0.141 C54.0618868,0.045 53.5998868,0 53.1648868,0 L53.1648868,0 C47.1448868,0.001 46.4958868,8.722 46.3478868,13.561 L46.3478868,13.561 Z M22.6598868,9.451 C19.5508868,12.064 20.9548868,18.138 21.5348868,21.544 L21.5348868,21.544 C22.0778868,25.954 26.3108868,53.794 32.7068868,54.273 L32.7068868,54.273 C41.0048868,54.891 33.1888868,22.037 32.5268868,17.656 L32.5268868,17.656 C32.0048868,14.151 30.0348868,7.871 26.2078868,7.871 L26.2078868,7.871 C25.1658868,7.872 23.9858868,8.337 22.6598868,9.451 L22.6598868,9.451 Z M75.5568868,12.779 C71.8838868,14.216 71.2138868,20.17 70.6468868,23.451 L70.6468868,23.451 C69.7268868,27.634 62.4318868,54.646 68.1088868,57.022 L68.1088868,57.022 C75.4688868,60.094 81.1028868,27.43 81.9168868,23.24 L81.9168868,23.24 C82.6288868,19.534 82.8238868,12.226 78.0918868,12.226 L78.0918868,12.226 C77.3678868,12.226 76.5268868,12.398 75.5568868,12.779 L75.5568868,12.779 Z M0.292886767,36.55 C1.27888677,41.383 11.9868868,63.579 16.0758868,64.393 L16.0758868,64.393 C20.4248868,65.262 12.0008868,40.963 11.4478868,37.62 L11.4478868,37.62 C10.7838868,33.578 9.29188677,27.871 5.28288677,27.279 L5.28288677,27.279 C5.00688677,27.239 4.74388677,27.22 4.49188677,27.22 L4.49188677,27.22 C0.475886767,27.22 -0.599113233,32.172 0.292886767,36.55 L0.292886767,36.55 Z M46.9308868,57.161 C34.3768868,57.653 22.2928868,61.718 14.8468868,71.213 L14.8468868,71.213 C6.82788677,81.44 8.65888677,93.805 17.4978868,103.079 L17.4978868,103.079 C26.5048868,111.795 39.5488868,115.15 52.5288868,114.082 L52.5288868,114.082 C55.8088868,113.813 61.4398868,112.41 65.7528868,110.054 L65.7528868,110.054 C74.3058868,105.371 100.480887,77.112 98.2098868,74.41 L98.2098868,74.41 C86.9748868,61.028 69.6978868,89.24 60.3828868,95.353 L60.3828868,95.353 C53.9588868,99.574 44.2068868,99.909 37.3568868,95.878 L37.3568868,95.878 C27.9748868,90.365 30.8458868,77.182 40.7478868,73.911 L40.7478868,73.911 C44.2378868,72.757 48.7638868,73.519 53.3028868,74.279 L53.3028868,74.279 C60.2138868,75.438 67.1588868,76.597 70.5308868,70.997 L70.5308868,70.997 C77.1068868,60.081 55.9478868,57.142 47.9688868,57.142 L47.9688868,57.142 C47.5928868,57.142 47.2448868,57.149 46.9308868,57.161 L46.9308868,57.161 Z" id="path-3"></path>
    </defs>
    <g id="Content-Page" stroke="none" stroke-width="1" fill="none" fill-rule="evenodd">
        <g id="Content-Page---Logo-Use" transform="translate(-785.000000, -793.000000)">
            <g id="concrete-CMS-logo---hand" transform="translate(785.500000, 793.220200)">
                <path d="M150.0189,1.832 L149.8089,1.832 L149.8089,1.426 L150.0189,1.426 C150.1929,1.426 150.2789,1.488 150.2789,1.626 C150.2789,1.769 150.1929,1.832 150.0189,1.832 M150.6409,1.603 C150.6409,1.262 150.4149,1.099 150.0399,1.099 L149.4419,1.099 L149.4419,2.644 L149.8089,2.644 L149.8089,2.1 L149.9979,2.1 L150.2719,2.644 L150.6599,2.644 L150.3559,2.051 C150.5269,1.981 150.6409,1.848 150.6409,1.603 M150.0499,3.547 C149.1269,3.547 148.3749,2.795 148.3749,1.872 C148.3749,0.948 149.1269,0.197 150.0499,0.197 C150.9729,0.197 151.7249,0.948 151.7249,1.872 C151.7249,2.795 150.9729,3.547 150.0499,3.547 M150.0499,0 C149.0179,0 148.1789,0.84 148.1789,1.872 C148.1789,2.903 149.0179,3.743 150.0499,3.743 C151.0819,3.743 151.9209,2.903 151.9209,1.872 C151.9209,0.84 151.0819,0 150.0499,0" id="Fill-1" fill="#181819"></path>
                <g id="Group-5" transform="translate(0.000000, 0.000400)">
                    <mask id="mask-2" fill="white">
                        <use xlink:href="#path-1"></use>
                    </mask>
                    <g id="Clip-4"></g>
                    <polygon id="Fill-3" fill="#181819" mask="url(#mask-2)" points="-1.549 153.398 153.398 153.398 153.398 -1.549 -1.549 -1.549"></polygon>
                </g>
                <g id="Group-8" transform="translate(26.912113, 18.386400)">
                    <mask id="mask-4" fill="white">
                        <use xlink:href="#path-3"></use>
                    </mask>
                    <g id="Clip-7"></g>
                    <polygon id="Fill-6" fill="#FEFEFE" mask="url(#mask-4)" points="-2.20511323 116.699 102.028887 116.699 102.028887 -2.828 -2.20511323 -2.828"></polygon>
                </g>
            </g>
        </g>
    </g>
</svg>