<?xml version="1.0" encoding="UTF-8"?>
<svg width="254px" height="230px" viewBox="0 0 254 230" version="1.1" xmlns="http://www.w3.org/2000/svg" xmlns:xlink="http://www.w3.org/1999/xlink">
    <title>Group 13</title>
    <g id="Page-1" stroke="none" stroke-width="1" fill="none" fill-rule="evenodd">
        <g id="UO-website-Logo-V1" transform="translate(-242.000000, -1881.000000)">
            <g id="Group-13" transform="translate(243.000000, 1882.000000)">
                <path d="M243.9,168.465981 L243.9,168.470474 C243.9,169.21263 243.5346,169.95928 242.7975,170.385166 L211.2084,188.6911 C209.1627,189.879808 206.6382,189.879808 204.5925,188.6911 L173.0034,170.385166 C172.2663,169.95928 171.9,169.21263 171.9,168.470474 L171.9,168.465981 C171.9,167.719332 172.2663,166.977175 173.0034,166.55039 L204.5925,148.240863 C206.6382,147.057545 209.1627,147.057545 211.2084,148.240863 L242.7975,166.55039 C243.5346,166.977175 243.9,167.719332 243.9,168.465981 Z" id="Path" fill="#6FF08C"></path>
                <path d="M243.9,168.465981 L243.9,168.470474 C243.9,169.21263 243.5346,169.95928 242.7975,170.385166 L211.2084,188.6911 C209.1627,189.879808 206.6382,189.879808 204.5925,188.6911 L173.0034,170.385166 C172.2663,169.95928 171.9,169.21263 171.9,168.470474 L171.9,168.465981 C171.9,167.719332 172.2663,166.977175 173.0034,166.55039 L204.5925,148.240863 C206.6382,147.057545 209.1627,147.057545 211.2084,148.240863 L242.7975,166.55039 C243.5346,166.977175 243.9,167.719332 243.9,168.465981 Z" id="Path" stroke="#37C757" stroke-width="0.9" stroke-linecap="round" stroke-linejoin="round"></path>
                <path d="M243.9,168.018531 L243.9,180.145515 C243.9,180.888571 243.5301,181.63522 242.7975,182.061106 L211.2084,200.374228 C209.1627,201.559342 206.6382,201.559342 204.5925,200.374228 L173.0034,182.061106 C172.6317,181.848163 172.359,181.553457 172.1736,181.221014 C171.9927,180.888571 171.9,180.516594 171.9,180.145515 L171.9,168.018531 C171.9,168.761586 172.2663,169.508235 173.0034,169.934122 L204.5925,188.243649 C206.6382,189.432358 209.1627,189.432358 211.2084,188.243649 L242.7975,169.934122 C243.5346,169.508235 243.9,168.761586 243.9,168.018531 Z" id="Path" fill="#37C757"></path>
                <path d="M243.9,168.018531 L243.9,180.145515 C243.9,180.888571 243.5301,181.63522 242.7975,182.061106 L211.2084,200.374228 C209.1627,201.559342 206.6382,201.559342 204.5925,200.374228 L173.0034,182.061106 C172.6317,181.848163 172.359,181.553457 172.1736,181.221014 C171.9927,180.888571 171.9,180.516594 171.9,180.145515 L171.9,168.018531 C171.9,168.761586 172.2663,169.508235 173.0034,169.934122 L204.5925,188.243649 C206.6382,189.432358 209.1627,189.432358 211.2084,188.243649 L242.7975,169.934122 C243.5346,169.508235 243.9,168.761586 243.9,168.018531 Z" id="Path" stroke="#37C757" stroke-width="0.9" stroke-linecap="round" stroke-linejoin="round"></path>
                <path d="M228.6,151.397275 C228.6,151.823162 228.3939,152.253541 227.9808,152.49883 L219.3993,157.577122 L210.2103,163.01661 C209.061,163.695872 207.639,163.695872 206.4897,163.01661 L197.3007,157.577122 L188.7192,152.49883 C188.3061,152.253541 188.1,151.823162 188.1,151.397275 C188.1,150.965998 188.3061,150.539213 188.7192,150.293924 L206.4897,139.776143 C207.639,139.096881 209.061,139.096881 210.2103,139.776143 L227.9808,150.293924 C228.3939,150.539213 228.6,150.965998 228.6,151.397275 Z" id="Path" fill="#000000"></path>
                <path d="M228.6,151.397275 C228.6,151.823162 228.3939,152.253541 227.9808,152.49883 L219.3993,157.577122 L210.2103,163.01661 C209.061,163.695872 207.639,163.695872 206.4897,163.01661 L197.3007,157.577122 L188.7192,152.49883 C188.3061,152.253541 188.1,151.823162 188.1,151.397275 C188.1,150.965998 188.3061,150.539213 188.7192,150.293924 L206.4897,139.776143 C207.639,139.096881 209.061,139.096881 210.2103,139.776143 L227.9808,150.293924 C228.3939,150.539213 228.6,150.965998 228.6,151.397275 Z" id="Path" stroke="#37C757" stroke-width="0.9" stroke-linecap="round" stroke-linejoin="round"></path>
                <path d="M233.1,165.950196 C233.1,166.467729 232.8489,166.985262 232.344,167.281765 L210.6243,179.978395 C209.2167,180.804112 207.4833,180.804112 206.0757,179.978395 L184.356,167.281765 C183.8511,166.985262 183.6,166.467729 183.6,165.950196 L183.8439,165.113697 L187.9956,150.947129 C187.9956,151.37032 188.2035,151.798004 188.6184,152.041496 L197.2431,157.083849 L206.4798,162.484701 C207.6345,163.159471 209.0646,163.159471 210.2202,162.484701 L219.4569,157.083849 L228.0816,152.041496 C228.4965,151.798004 228.7044,151.37032 228.7044,150.947129 L232.8552,165.113697 L233.1,165.950196 Z" id="Path" fill="#000000"></path>
                <path d="M233.1,165.950196 C233.1,166.467729 232.8489,166.985262 232.344,167.281765 L210.6243,179.978395 C209.2167,180.804112 207.4833,180.804112 206.0757,179.978395 L184.356,167.281765 C183.8511,166.985262 183.6,166.467729 183.6,165.950196 L183.8439,165.113697 L187.9956,150.947129 C187.9956,151.37032 188.2035,151.798004 188.6184,152.041496 L197.2431,157.083849 L206.4798,162.484701 C207.6345,163.159471 209.0646,163.159471 210.2202,162.484701 L219.4569,157.083849 L228.0816,152.041496 C228.4965,151.798004 228.7044,151.37032 228.7044,150.947129 L232.8552,165.113697 L233.1,165.950196 Z" id="Path" stroke="#37C757" stroke-width="0.9" stroke-linecap="round" stroke-linejoin="round"></path>
                <path d="M216.9,150.496983 C216.9,150.854584 216.8298,151.212185 216.6894,151.562598 C216.333,152.453007 215.5257,153.300287 214.2639,153.992128 C210.7494,155.922095 205.0506,155.922095 201.5361,153.992128 C200.2743,153.300287 199.4652,152.453007 199.1106,151.562598 C198.9702,151.212185 198.9,150.854584 198.9,150.496983 C198.9,149.2337 199.7775,147.968619 201.5361,147.003635 C205.0506,145.073669 210.7494,145.073669 214.2639,147.003635 C216.0207,147.968619 216.9,149.2337 216.9,150.496983 Z" id="Path" fill="#000000"></path>
                <path d="M216.9,150.496983 C216.9,150.854584 216.8298,151.212185 216.6894,151.562598 C216.333,152.453007 215.5257,153.300287 214.2639,153.992128 C210.7494,155.922095 205.0506,155.922095 201.5361,153.992128 C200.2743,153.300287 199.4652,152.453007 199.1106,151.562598 C198.9702,151.212185 198.9,150.854584 198.9,150.496983 C198.9,149.2337 199.7775,147.968619 201.5361,147.003635 C205.0506,145.073669 210.7494,145.073669 214.2639,147.003635 C216.0207,147.968619 216.9,149.2337 216.9,150.496983 Z" id="Path" stroke="#37C757" stroke-width="0.9" stroke-linecap="round" stroke-linejoin="round"></path>
                <path d="M210.6,134.774223 L210.6,149.788969 C210.6,149.873428 210.5766,149.958785 210.5343,150.038751 C210.4272,150.2481 210.1842,150.448465 209.8062,150.609295 C208.7523,151.059441 207.0432,151.059441 205.9884,150.609295 C205.6104,150.448465 205.3683,150.2481 205.2657,150.038751 C205.2234,149.958785 205.2,149.873428 205.2,149.788969 L205.2,134.774223 C205.2,134.85958 205.2234,134.944038 205.2657,135.024903 C205.3683,135.234252 205.6104,135.429225 205.9884,135.594548 C207.0432,136.044694 208.7523,136.044694 209.8062,135.594548 C210.1842,135.429225 210.4272,135.234252 210.5343,135.024903 C210.5766,134.944038 210.6,134.85958 210.6,134.774223 Z" id="Path" fill="#6FF08C"></path>
                <path d="M210.6,134.774223 L210.6,149.788969 C210.6,149.873428 210.5766,149.958785 210.5343,150.038751 C210.4272,150.2481 210.1842,150.448465 209.8062,150.609295 C208.7523,151.059441 207.0432,151.059441 205.9884,150.609295 C205.6104,150.448465 205.3683,150.2481 205.2657,150.038751 C205.2234,149.958785 205.2,149.873428 205.2,149.788969 L205.2,134.774223 C205.2,134.85958 205.2234,134.944038 205.2657,135.024903 C205.3683,135.234252 205.6104,135.429225 205.9884,135.594548 C207.0432,136.044694 208.7523,136.044694 209.8062,135.594548 C210.1842,135.429225 210.4272,135.234252 210.5343,135.024903 C210.5766,134.944038 210.6,134.85958 210.6,134.774223 Z" id="Path" stroke="#37C757" stroke-width="0.9" stroke-linecap="round" stroke-linejoin="round"></path>
                <path d="M210.6,117.702821 L210.6,134.495689 C210.6,134.582843 210.5766,134.6682 210.5343,134.749963 C210.4272,134.962906 210.1842,135.161474 209.8062,135.329492 C208.7523,135.786826 207.0432,135.786826 205.9884,135.329492 C205.6104,135.161474 205.3683,134.962906 205.2657,134.749963 C205.2234,134.6682 205.2,134.582843 205.2,134.495689 L205.2,117.702821 L210.6,117.702821 Z" id="Path" fill="#37C757"></path>
                <path d="M210.6,117.702821 L210.6,134.495689 C210.6,134.582843 210.5766,134.6682 210.5343,134.749963 C210.4272,134.962906 210.1842,135.161474 209.8062,135.329492 C208.7523,135.786826 207.0432,135.786826 205.9884,135.329492 C205.6104,135.161474 205.3683,134.962906 205.2657,134.749963 C205.2234,134.6682 205.2,134.582843 205.2,134.495689 L205.2,117.702821 L210.6,117.702821 Z" id="Path" stroke="#37C757" stroke-width="0.9" stroke-linecap="round" stroke-linejoin="round"></path>
                <path d="M241.4889,119.381209 C241.371,119.529461 241.2396,119.671423 241.1091,119.812487 C235.368,126.235826 226.98,130.281748 217.6335,130.281748 C200.3292,130.281748 186.3,116.407191 186.3,99.2881697 C186.3,91.8180838 188.9712,84.9639161 193.4289,79.6063712 C193.4352,79.5937923 193.4487,79.5875927 193.4541,79.5753732 C193.7718,79.1936926 194.1021,78.817942 194.4387,78.4546806 C194.463,78.429972 194.4882,78.4052634 194.5134,78.3747145 C196.9848,75.8437445 200.3292,74.0328282 204.4449,73.2264291 C218.1258,70.5598762 235.125,80.0616385 242.4042,94.4533691 C247.2669,104.066365 246.5694,113.425986 241.4889,119.381209 Z" id="Path" fill="#000000"></path>
                <path d="M241.4889,119.381209 C241.371,119.529461 241.2396,119.671423 241.1091,119.812487 C235.368,126.235826 226.98,130.281748 217.6335,130.281748 C200.3292,130.281748 186.3,116.407191 186.3,99.2881697 C186.3,91.8180838 188.9712,84.9639161 193.4289,79.6063712 C193.4352,79.5937923 193.4487,79.5875927 193.4541,79.5753732 C193.7718,79.1936926 194.1021,78.817942 194.4387,78.4546806 C194.463,78.429972 194.4882,78.4052634 194.5134,78.3747145 C196.9848,75.8437445 200.3292,74.0328282 204.4449,73.2264291 C218.1258,70.5598762 235.125,80.0616385 242.4042,94.4533691 C247.2669,104.066365 246.5694,113.425986 241.4889,119.381209 Z" id="Path" stroke="#37C757" stroke-width="0.9" stroke-linecap="round" stroke-linejoin="round"></path>
                <path d="M241.5141,119.373123 C246.5649,113.419696 247.2579,104.060974 242.424,94.4497751 C235.1889,80.0607401 218.2914,70.5601457 204.6924,73.2263392 C200.6019,74.0330079 197.2773,75.8432054 194.8203,78.3737262 C194.796,78.404275 194.7708,78.4288938 194.7465,78.4536024 C194.4,78.8168638 194.0715,79.186235 193.7682,79.5742051 C193.7628,79.5866942 193.7493,79.5925344 193.7439,79.6051133 C189.009,85.5713885 188.4519,94.7211206 193.1742,104.110391 C200.4156,118.505177 217.3077,128.011252 230.9058,125.339128 C235.2006,124.495442 238.6548,122.543911 241.137,119.803502 C241.2666,119.662438 241.3962,119.521375 241.5141,119.373123 Z" id="Path" fill="#000000"></path>
                <path d="M241.5141,119.373123 C246.5649,113.419696 247.2579,104.060974 242.424,94.4497751 C235.1889,80.0607401 218.2914,70.5601457 204.6924,73.2263392 C200.6019,74.0330079 197.2773,75.8432054 194.8203,78.3737262 C194.796,78.404275 194.7708,78.4288938 194.7465,78.4536024 C194.4,78.8168638 194.0715,79.186235 193.7682,79.5742051 C193.7628,79.5866942 193.7493,79.5925344 193.7439,79.6051133 C189.009,85.5713885 188.4519,94.7211206 193.1742,104.110391 C200.4156,118.505177 217.3077,128.011252 230.9058,125.339128 C235.2006,124.495442 238.6548,122.543911 241.137,119.803502 C241.2666,119.662438 241.3962,119.521375 241.5141,119.373123 Z" id="Path" stroke="#37C757" stroke-width="0.9" stroke-linecap="round" stroke-linejoin="round"></path>
                <path d="M215.4249,89.0030996 C214.3602,88.90732 213.3126,88.9393963 212.3055,89.1315843 C210.5919,89.4613319 209.1942,90.1989962 208.1628,91.2259757 C208.1547,91.2430471 208.1466,91.2502351 208.1295,91.2583216 C207.9882,91.4110657 207.8469,91.5638098 207.7218,91.7156554 C207.7218,91.7237419 207.7137,91.7237419 207.7137,91.7318283 C205.7256,94.1550688 205.4925,97.8793299 207.4725,101.698831 C210.5091,107.548931 217.5966,111.416951 223.2945,110.333367 C225.0999,109.988345 226.548,109.193177 227.5875,108.078145 C227.646,108.021539 227.6946,107.965833 227.745,107.901141 C229.5333,105.871441 230.0157,102.845311 228.9096,99.6125264 C228.7107,99.0024484 228.4524,98.3851824 228.1284,97.767018 C225.6246,92.9510858 220.383,89.4766063 215.4249,89.0030996 Z" id="Path" fill="#000000"></path>
                <path d="M215.4249,89.0030996 C214.3602,88.90732 213.3126,88.9393963 212.3055,89.1315843 C210.5919,89.4613319 209.1942,90.1989962 208.1628,91.2259757 C208.1547,91.2430471 208.1466,91.2502351 208.1295,91.2583216 C207.9882,91.4110657 207.8469,91.5638098 207.7218,91.7156554 C207.7218,91.7237419 207.7137,91.7237419 207.7137,91.7318283 C205.7256,94.1550688 205.4925,97.8793299 207.4725,101.698831 C210.5091,107.548931 217.5966,111.416951 223.2945,110.333367 C225.0999,109.988345 226.548,109.193177 227.5875,108.078145 C227.646,108.021539 227.6946,107.965833 227.745,107.901141 C229.5333,105.871441 230.0157,102.845311 228.9096,99.6125264 C228.7107,99.0024484 228.4524,98.3851824 228.1284,97.767018 C225.6246,92.9510858 220.383,89.4766063 215.4249,89.0030996 Z" id="Path" stroke="#37C757" stroke-width="0.9" stroke-linecap="round" stroke-linejoin="round"></path>
                <path d="M218.673,88.0942721 C217.854,88.0180797 217.0485,88.0428782 216.2745,88.1953527 C214.956,88.4560959 213.8805,89.0399379 213.0867,89.8530757 C213.0804,89.8665531 213.0741,89.8728426 213.0615,89.879132 C212.9526,90.0004288 212.8446,90.1208271 212.7483,90.2412254 C212.7483,90.2484134 212.742,90.2484134 212.742,90.2538044 C211.212,92.1729893 211.0329,95.1200523 212.5557,98.1443858 C214.8912,102.776127 220.3434,105.837298 224.7264,104.980134 C226.1151,104.706992 227.2284,104.078046 228.0285,103.194825 C228.0735,103.150799 228.1113,103.106773 228.15,103.05466 C229.5252,101.447253 229.8969,99.0527641 229.0464,96.4929524 C228.8925,96.0095622 228.6945,95.5198825 228.4443,95.0319998 C226.5183,91.2196863 222.4863,88.4693936 218.673,88.0942721 Z" id="Path" fill="#000000"></path>
                <path d="M218.673,88.0942721 C217.854,88.0180797 217.0485,88.0428782 216.2745,88.1953527 C214.956,88.4560959 213.8805,89.0399379 213.0867,89.8530757 C213.0804,89.8665531 213.0741,89.8728426 213.0615,89.879132 C212.9526,90.0004288 212.8446,90.1208271 212.7483,90.2412254 C212.7483,90.2484134 212.742,90.2484134 212.742,90.2538044 C211.212,92.1729893 211.0329,95.1200523 212.5557,98.1443858 C214.8912,102.776127 220.3434,105.837298 224.7264,104.980134 C226.1151,104.706992 227.2284,104.078046 228.0285,103.194825 C228.0735,103.150799 228.1113,103.106773 228.15,103.05466 C229.5252,101.447253 229.8969,99.0527641 229.0464,96.4929524 C228.8925,96.0095622 228.6945,95.5198825 228.4443,95.0319998 C226.5183,91.2196863 222.4863,88.4693936 218.673,88.0942721 Z" id="Path" stroke="#37C757" stroke-width="0.9" stroke-linecap="round" stroke-linejoin="round"></path>
                <path d="M250.2,62.4711766 L244.1313,70.431661 L223.407,97.603492 C222.3585,98.978189 220.3947,99.241448 219.0231,98.1911076 C217.6569,97.1398686 217.395,95.170368 218.4426,93.7947724 C218.5182,93.694141 218.6109,93.5881186 218.6982,93.5009646 L242.64,69.1313593 L249.651,61.9961424 C249.8508,62.1397218 250.0308,62.2961498 250.2,62.4711766 Z" id="Path" fill="#37C757"></path>
                <path d="M250.2,62.4711766 L244.1313,70.431661 L223.407,97.603492 C222.3585,98.978189 220.3947,99.241448 219.0231,98.1911076 C217.6569,97.1398686 217.395,95.170368 218.4426,93.7947724 C218.5182,93.694141 218.6109,93.5881186 218.6982,93.5009646 L242.64,69.1313593 L249.651,61.9961424 C249.8508,62.1397218 250.0308,62.2961498 250.2,62.4711766 Z" id="Path" stroke="#37C757" stroke-width="0.9" stroke-linecap="round" stroke-linejoin="round"></path>
                <path d="M252,66.0422442 C252,68.7683673 249.7833,70.9810905 247.0527,70.9810905 C246.159,70.9810905 245.3202,70.7483804 244.5975,70.3330961 C244.0287,70.0090988 243.5328,69.575036 243.135,69.0616361 C242.9208,68.7987365 242.7426,68.5054678 242.5896,68.19971 C242.2782,67.5459651 242.1,66.812434 242.1,66.0422442 C242.1,63.3040813 244.3167,61.0976475 247.0527,61.0976475 C247.824,61.0976475 248.5593,61.274651 249.2136,61.5923588 C249.4962,61.7332428 249.7716,61.8980267 250.0164,62.0874294 C250.2126,62.2283134 250.3899,62.3811474 250.5555,62.5523107 C251.4483,63.444516 252,64.678958 252,66.0422442 Z" id="Path" fill="#6FF08C"></path>
                <path d="M252,66.0422442 C252,68.7683673 249.7833,70.9810905 247.0527,70.9810905 C246.159,70.9810905 245.3202,70.7483804 244.5975,70.3330961 C244.0287,70.0090988 243.5328,69.575036 243.135,69.0616361 C242.9208,68.7987365 242.7426,68.5054678 242.5896,68.19971 C242.2782,67.5459651 242.1,66.812434 242.1,66.0422442 C242.1,63.3040813 244.3167,61.0976475 247.0527,61.0976475 C247.824,61.0976475 248.5593,61.274651 249.2136,61.5923588 C249.4962,61.7332428 249.7716,61.8980267 250.0164,62.0874294 C250.2126,62.2283134 250.3899,62.3811474 250.5555,62.5523107 C251.4483,63.444516 252,64.678958 252,66.0422442 Z" id="Path" stroke="#37C757" stroke-width="0.9" stroke-linecap="round" stroke-linejoin="round"></path>
                <path d="M243.9,66.4886164 C243.9,64.9978338 245.1096,63.793132 246.6,63.793132" id="Path" stroke="#37C757" stroke-width="0.9" stroke-linecap="round" stroke-linejoin="round"></path>
                <line x1="220.5" y1="160.830572" x2="223.2" y2="168.917026" id="Path" stroke="#37C757" stroke-width="0.9" stroke-linecap="round" stroke-linejoin="round"></line>
                <line x1="225.9" y1="159.932077" x2="221.4" y2="164.424551" id="Path" stroke="#37C757" stroke-width="0.9" stroke-linecap="round" stroke-linejoin="round"></line>
                <path d="M227.6505,160.348081 C227.4201,161.313064 226.4508,161.909664 225.4833,161.67965 C224.5167,161.449635 223.9191,160.481058 224.1495,159.516074 C224.379,158.551091 225.3492,157.955389 226.3167,158.183606 C227.2833,158.413621 227.8809,159.383097 227.6505,160.348081 Z" id="Path" fill="#6FF08C"></path>
                <path d="M227.6505,160.348081 C227.4201,161.313064 226.4508,161.909664 225.4833,161.67965 C224.5167,161.449635 223.9191,160.481058 224.1495,159.516074 C224.379,158.551091 225.3492,157.955389 226.3167,158.183606 C227.2833,158.413621 227.8809,159.383097 227.6505,160.348081 Z" id="Path" stroke="#37C757" stroke-width="0.9" stroke-linecap="round" stroke-linejoin="round"></path>
                <path d="M234,182.257877 C234,183.235439 234.2988,183.937163 234.7911,184.280388 L234.7992,184.287576 L235.0062,184.401685 L237.789,185.988427 C237.4362,185.744037 237.1824,185.317251 237.0681,184.74491 C237.0141,184.508606 236.9916,184.241753 236.9916,183.958727 C236.9916,182.059309 238.1589,179.847215 239.5953,179.015209 C239.679,178.962198 239.7636,178.923562 239.8482,178.885826 C240.3549,178.663897 240.8238,178.649521 241.2,178.831916 L238.3011,177.1697 L238.2552,177.14634 C237.8097,176.918122 237.2328,176.955859 236.6037,177.314358 C235.1673,178.138278 234,180.351271 234,182.257877 Z" id="Path" fill="#000000"></path>
                <path d="M234,182.257877 C234,183.235439 234.2988,183.937163 234.7911,184.280388 L234.7992,184.287576 L235.0062,184.401685 L237.789,185.988427 C237.4362,185.744037 237.1824,185.317251 237.0681,184.74491 C237.0141,184.508606 236.9916,184.241753 236.9916,183.958727 C236.9916,182.059309 238.1589,179.847215 239.5953,179.015209 C239.679,178.962198 239.7636,178.923562 239.8482,178.885826 C240.3549,178.663897 240.8238,178.649521 241.2,178.831916 L238.3011,177.1697 L238.2552,177.14634 C237.8097,176.918122 237.2328,176.955859 236.6037,177.314358 C235.1673,178.138278 234,180.351271 234,182.257877 Z" id="Path" stroke="#37C757" stroke-width="0.9" stroke-linecap="round" stroke-linejoin="round"></path>
                <path d="M237.6,183.817664 C237.6,184.087212 237.6234,184.342385 237.6792,184.568805 C237.7989,185.11509 238.0617,185.522108 238.4271,185.755717 C238.4433,185.770093 238.4595,185.785367 238.4829,185.792555 L238.6197,185.865333 C239.0814,186.069292 239.6628,186.025265 240.3,185.691025 C241.7967,184.895857 243,182.782598 243,180.968537 C243,180.035899 242.6814,179.358434 242.1711,179.030483 C242.1639,179.023295 242.1567,179.015209 242.1405,179.008919 L241.9641,178.920867 C241.5744,178.74566 241.0884,178.760935 240.5628,178.972081 C240.4746,179.008919 240.3873,179.044859 240.3,179.096073 C238.8105,179.890343 237.6,182.002704 237.6,183.817664 Z" id="Path" fill="#000000"></path>
                <path d="M237.6,183.817664 C237.6,184.087212 237.6234,184.342385 237.6792,184.568805 C237.7989,185.11509 238.0617,185.522108 238.4271,185.755717 C238.4433,185.770093 238.4595,185.785367 238.4829,185.792555 L238.6197,185.865333 C239.0814,186.069292 239.6628,186.025265 240.3,185.691025 C241.7967,184.895857 243,182.782598 243,180.968537 C243,180.035899 242.6814,179.358434 242.1711,179.030483 C242.1639,179.023295 242.1567,179.015209 242.1405,179.008919 L241.9641,178.920867 C241.5744,178.74566 241.0884,178.760935 240.5628,178.972081 C240.4746,179.008919 240.3873,179.044859 240.3,179.096073 C238.8105,179.890343 237.6,182.002704 237.6,183.817664 Z" id="Path" stroke="#37C757" stroke-width="0.9" stroke-linecap="round" stroke-linejoin="round"></path>
                <path d="M225.9,186.750351 C225.9,187.727913 226.1997,188.429638 226.692,188.772863 L226.6992,188.78005 L226.9071,188.894159 L229.6899,190.480901 C229.3371,190.236511 229.0824,189.809726 228.9681,189.237384 C228.9141,189.00108 228.8916,188.734227 228.8916,188.451201 C228.8916,186.551783 230.0589,184.339689 231.4953,183.507683 C231.5799,183.454672 231.6645,183.416036 231.7482,183.3783 C232.2558,183.15727 232.7247,183.141996 233.1,183.32439 L230.202,181.662175 L230.1552,181.638814 C229.7106,181.410596 229.1337,181.448333 228.5037,181.806832 C227.0682,182.630752 225.9,184.843745 225.9,186.750351 Z" id="Path" fill="#000000"></path>
                <path d="M225.9,186.750351 C225.9,187.727913 226.1997,188.429638 226.692,188.772863 L226.6992,188.78005 L226.9071,188.894159 L229.6899,190.480901 C229.3371,190.236511 229.0824,189.809726 228.9681,189.237384 C228.9141,189.00108 228.8916,188.734227 228.8916,188.451201 C228.8916,186.551783 230.0589,184.339689 231.4953,183.507683 C231.5799,183.454672 231.6645,183.416036 231.7482,183.3783 C232.2558,183.15727 232.7247,183.141996 233.1,183.32439 L230.202,181.662175 L230.1552,181.638814 C229.7106,181.410596 229.1337,181.448333 228.5037,181.806832 C227.0682,182.630752 225.9,184.843745 225.9,186.750351 Z" id="Path" stroke="#37C757" stroke-width="0.9" stroke-linecap="round" stroke-linejoin="round"></path>
                <path d="M228.6,188.310138 C228.6,188.579686 228.6234,188.834859 228.6792,189.061279 C228.7998,189.607564 229.0626,190.014582 229.428,190.248191 C229.4442,190.262567 229.4604,190.277841 229.4838,190.284131 L229.6197,190.357807 C230.0814,190.561766 230.6628,190.517739 231.2991,190.183499 C232.7967,189.388331 234,187.275072 234,185.461011 C234,184.528373 233.6814,183.850009 233.1711,183.522957 C233.163,183.515769 233.1558,183.507683 233.1396,183.500495 L232.9641,183.414239 C232.5744,183.238134 232.0884,183.25251 231.5628,183.464555 C231.4746,183.500495 231.3873,183.537333 231.2991,183.588547 C229.8105,184.382817 228.6,186.495178 228.6,188.310138 Z" id="Path" fill="#000000"></path>
                <path d="M228.6,188.310138 C228.6,188.579686 228.6234,188.834859 228.6792,189.061279 C228.7998,189.607564 229.0626,190.014582 229.428,190.248191 C229.4442,190.262567 229.4604,190.277841 229.4838,190.284131 L229.6197,190.357807 C230.0814,190.561766 230.6628,190.517739 231.2991,190.183499 C232.7967,189.388331 234,187.275072 234,185.461011 C234,184.528373 233.6814,183.850009 233.1711,183.522957 C233.163,183.515769 233.1558,183.507683 233.1396,183.500495 L232.9641,183.414239 C232.5744,183.238134 232.0884,183.25251 231.5628,183.464555 C231.4746,183.500495 231.3873,183.537333 231.2991,183.588547 C229.8105,184.382817 228.6,186.495178 228.6,188.310138 Z" id="Path" stroke="#37C757" stroke-width="0.9" stroke-linecap="round" stroke-linejoin="round"></path>
                <line x1="186.3" y1="182.394448" x2="176.4" y2="176.104984" id="Path" stroke="#37C757" stroke-width="0.9" stroke-linecap="round" stroke-linejoin="round"></line>
                <line x1="181.8" y1="183.292943" x2="176.4" y2="180.597458" id="Path" stroke="#37C757" stroke-width="0.9" stroke-linecap="round" stroke-linejoin="round"></line>
                <path d="M223.5735,150.311893 C224.2755,150.663205 224.2755,151.231952 223.5735,151.583264 C222.8697,151.932778 221.7303,151.932778 221.0274,151.583264 C220.3245,151.231952 220.3245,150.663205 221.0274,150.311893 C221.7303,149.960582 222.8697,149.960582 223.5735,150.311893 Z" id="Path" fill="#37C757"></path>
                <path d="M209.1735,158.397448 C209.8755,158.74876 209.8755,159.318405 209.1735,159.669717 C208.4697,160.019231 207.3303,160.019231 206.6274,159.669717 C205.9245,159.318405 205.9245,158.74876 206.6274,158.397448 C207.3303,158.047934 208.4697,158.047934 209.1735,158.397448 Z" id="Path" fill="#37C757"></path>
                <path d="M194.7726,150.311893 C195.4755,150.663205 195.4755,151.231952 194.7726,151.583264 C194.0697,151.932778 192.9303,151.932778 192.2274,151.583264 C191.5245,151.231952 191.5245,150.663205 192.2274,150.311893 C192.9303,149.960582 194.0697,149.960582 194.7726,150.311893 Z" id="Path" fill="#37C757"></path>
                <path d="M196.2,162.671588 C196.2,163.128922 196.1352,163.603327 196.0065,164.077732 C195.7032,165.162216 195.1056,166.022974 194.3748,166.553984 C193.6431,167.080502 192.7827,167.270085 191.9646,166.99245 C191.1501,166.716612 190.5345,166.03106 190.1943,165.139753 C189.8541,164.248447 189.7938,163.163963 190.0935,162.078582 C190.3968,160.994098 190.9944,160.128848 191.7297,159.60233 C192.4614,159.070421 193.3209,158.886229 194.1345,159.158473 C194.9535,159.43521 195.5646,160.124355 195.9057,161.016561 C196.0992,161.516124 196.2,162.083074 196.2,162.671588 Z" id="Path" fill="#6FF08C"></path>
                <path d="M196.2,162.671588 C196.2,163.128922 196.1352,163.603327 196.0065,164.077732 C195.7032,165.162216 195.1056,166.022974 194.3748,166.553984 C193.6431,167.080502 192.7827,167.270085 191.9646,166.99245 C191.1501,166.716612 190.5345,166.03106 190.1943,165.139753 C189.8541,164.248447 189.7938,163.163963 190.0935,162.078582 C190.3968,160.994098 190.9944,160.128848 191.7297,159.60233 C192.4614,159.070421 193.3209,158.886229 194.1345,159.158473 C194.9535,159.43521 195.5646,160.124355 195.9057,161.016561 C196.0992,161.516124 196.2,162.083074 196.2,162.671588 Z" id="Path" stroke="#37C757" stroke-width="0.9" stroke-linecap="round" stroke-linejoin="round"></path>
                <line x1="192.6" y1="163.526057" x2="195.3" y2="162.627562" id="Path" stroke="#37C757" stroke-width="0.9" stroke-linecap="round" stroke-linejoin="round"></line>
                <path d="M179.1,53.9122946 C179.1,54.9917463 178.5645,56.071198 177.4935,56.6855887 L93.8349,104.880401 C91.1835,106.40335 87.91668,106.40335 85.26546,104.880401 L1.606824,56.6855887 C0.535761,56.071198 0,54.9917463 0,53.9122946 C0,52.832843 0.535761,51.7533913 1.606824,51.1336096 L85.26546,2.93912929 C87.91668,1.41627941 91.1835,1.41627941 93.8349,2.93912929 L177.4935,51.1336096 C178.5645,51.7533913 179.1,52.832843 179.1,53.9122946 Z" id="Path" fill="#000000"></path>
                <path d="M179.1,53.9122946 C179.1,54.9917463 178.5645,56.071198 177.4935,56.6855887 L93.8349,104.880401 C91.1835,106.40335 87.91668,106.40335 85.26546,104.880401 L1.606824,56.6855887 C0.535761,56.071198 0,54.9917463 0,53.9122946 C0,52.832843 0.535761,51.7533913 1.606824,51.1336096 L85.26546,2.93912929 C87.91668,1.41627941 91.1835,1.41627941 93.8349,2.93912929 L177.4935,51.1336096 C178.5645,51.7533913 179.1,52.832843 179.1,53.9122946 Z" id="Path" stroke="#37C757" stroke-width="0.9" stroke-linecap="round" stroke-linejoin="round"></path>
                <path d="M152.1,54.361003 C152.1,55.1140315 151.7247,55.8669701 150.9741,56.2953724 L135.2025,65.3807723 L129.2031,68.8345864 L92.5425,89.9492146 C90.6894,91.013931 88.40583,91.013931 86.55732,89.9492146 L49.89168,68.8345864 L43.893,65.3807723 L28.12113,56.2953724 C27.37512,55.8669701 27,55.1140315 27,54.361003 C27,53.6080643 27.37512,52.8505433 28.12113,52.4177384 L86.55732,18.7679394 C88.40583,17.703852 90.6894,17.703852 92.5425,18.7679394 L150.9741,52.4177384 C151.7247,52.8505433 152.1,53.6080643 152.1,54.361003 Z" id="Path" fill="#6FF08C"></path>
                <path d="M152.1,54.361003 C152.1,55.1140315 151.7247,55.8669701 150.9741,56.2953724 L135.2025,65.3807723 L129.2031,68.8345864 L92.5425,89.9492146 C90.6894,91.013931 88.40583,91.013931 86.55732,89.9492146 L49.89168,68.8345864 L43.893,65.3807723 L28.12113,56.2953724 C27.37512,55.8669701 27,55.1140315 27,54.361003 C27,53.6080643 27.37512,52.8505433 28.12113,52.4177384 L86.55732,18.7679394 C88.40583,17.703852 90.6894,17.703852 92.5425,18.7679394 L150.9741,52.4177384 C151.7247,52.8505433 152.1,53.6080643 152.1,54.361003 Z" id="Path" stroke="#37C757" stroke-width="0.9" stroke-linecap="round" stroke-linejoin="round"></path>
                <path d="M135.9,65.1407844 L129.8682,68.6273037 L93.0105,89.9420267 C91.1475,91.0166265 88.85187,91.0166265 86.99355,89.9420267 L50.1309,68.6273037 L44.1,65.1407844 L86.99355,40.3393624 C88.85187,39.2652118 91.1475,39.2652118 93.0105,40.3393624 L135.9,65.1407844 Z" id="Path" fill="#37C757"></path>
                <path d="M135.9,65.1407844 L129.8682,68.6273037 L93.0105,89.9420267 C91.1475,91.0166265 88.85187,91.0166265 86.99355,89.9420267 L50.1309,68.6273037 L44.1,65.1407844 L86.99355,40.3393624 C88.85187,39.2652118 91.1475,39.2652118 93.0105,40.3393624 L135.9,65.1407844 Z" id="Path" stroke="#37C757" stroke-width="0.9" stroke-linecap="round" stroke-linejoin="round"></path>
                <path d="M61.57278,65.8532009 C62.27577,66.2039733 62.27577,66.7729901 61.57278,67.1237624 C60.86979,67.4748942 59.73012,67.4748942 59.02713,67.1237624 C58.32432,66.7729901 58.32432,66.2039733 59.02713,65.8532009 C59.73012,65.5024285 60.86979,65.5024285 61.57278,65.8532009 Z" id="Path" fill="#37C757"></path>
                <path d="M68.77278,61.3607268 C69.47577,61.7114992 69.47577,62.280516 68.77278,62.6312883 C68.06988,62.9824201 66.93021,62.9824201 66.22722,62.6312883 C65.52423,62.280516 65.52423,61.7114992 66.22722,61.3607268 C66.93021,61.0099545 68.06988,61.0099545 68.77278,61.3607268 Z" id="Path" fill="#37C757"></path>
                <path d="M68.77278,69.4471802 C69.47577,69.7979526 69.47577,70.3669693 68.77278,70.7177417 C68.06988,71.0688735 66.93021,71.0688735 66.22722,70.7177417 C65.52423,70.3669693 65.52423,69.7979526 66.22722,69.4471802 C66.93021,69.0964078 68.06988,69.0964078 68.77278,69.4471802 Z" id="Path" fill="#37C757"></path>
                <path d="M109.2726,61.3607268 C109.9755,61.7114992 109.9755,62.280516 109.2726,62.6312883 C108.5697,62.9824201 107.4294,62.9824201 106.7274,62.6312883 C106.0245,62.280516 106.0245,61.7114992 106.7274,61.3607268 C107.4294,61.0099545 108.5697,61.0099545 109.2726,61.3607268 Z" id="Path" fill="#37C757"></path>
                <path d="M109.2726,69.4471802 C109.9755,69.7979526 109.9755,70.3669693 109.2726,70.7177417 C108.5697,71.0688735 107.4303,71.0688735 106.7274,70.7177417 C106.0245,70.3669693 106.0245,69.7979526 106.7274,69.4471802 C107.4303,69.0964078 108.5697,69.0964078 109.2726,69.4471802 Z" id="Path" fill="#37C757"></path>
                <path d="M116.4726,65.8532009 C117.1755,66.2039733 117.1755,66.7729901 116.4726,67.1237624 C115.7697,67.4748942 114.6303,67.4748942 113.9274,67.1237624 C113.2245,66.7729901 113.2245,66.2039733 113.9274,65.8532009 C114.6303,65.5024285 115.7697,65.5024285 116.4726,65.8532009 Z" id="Path" fill="#37C757"></path>
                <path d="M179.1,54.8081838 L179.1,139.298144 C179.1,140.376338 178.5645,141.454531 177.4935,142.074493 L93.8349,190.233815 C91.1835,191.761256 87.91668,191.761256 85.26546,190.233815 L1.606824,142.074493 C0.535761,141.454531 0,140.376338 0,139.298144 L0,54.8081838 C0,55.8869167 0.535761,56.9657394 1.606824,57.5797708 L85.26546,105.744753 C87.91668,107.266804 91.1835,107.266804 93.8349,105.744753 L177.4935,57.5797708 C178.5645,56.9657394 179.1,55.8869167 179.1,54.8081838 Z" id="Path" fill="#000000"></path>
                <path d="M179.1,54.8081838 L179.1,139.298144 C179.1,140.376338 178.5645,141.454531 177.4935,142.074493 L93.8349,190.233815 C91.1835,191.761256 87.91668,191.761256 85.26546,190.233815 L1.606824,142.074493 C0.535761,141.454531 0,140.376338 0,139.298144 L0,54.8081838 C0,55.8869167 0.535761,56.9657394 1.606824,57.5797708 L85.26546,105.744753 C87.91668,107.266804 91.1835,107.266804 93.8349,105.744753 L177.4935,57.5797708 C178.5645,56.9657394 179.1,55.8869167 179.1,54.8081838 Z" id="Path" stroke="#37C757" stroke-width="0.9" stroke-linecap="round"></path>
                <path d="M9,88.0708213 C9,90.8629838 9.64359,93.8486821 10.77219,96.7660948 C11.04363,97.4678192 11.67165,98.0060176 12.14559,97.9287471 L14.51259,97.5414958 C14.92992,97.4732102 15.05691,96.9413013 14.82552,96.3231368 C14.11695,94.4327037 13.71672,92.5063309 13.71672,90.6985593 C13.71672,85.0791032 17.58366,82.6172274 22.5189,84.8713712 C23.01399,85.0972528 23.4,84.8664294 23.4,84.3127769 L23.4,81.1792763 C23.4,80.56219 22.93209,79.8038604 22.37904,79.5392537 C14.90373,75.9573142 9,79.6045742 9,88.0708213 Z" id="Path" fill="#37C757"></path>
                <path d="M9,88.0708213 C9,90.8629838 9.64359,93.8486821 10.77219,96.7660948 C11.04363,97.4678192 11.67165,98.0060176 12.14559,97.9287471 L14.51259,97.5414958 C14.92992,97.4732102 15.05691,96.9413013 14.82552,96.3231368 C14.11695,94.4327037 13.71672,92.5063309 13.71672,90.6985593 C13.71672,85.0791032 17.58366,82.6172274 22.5189,84.8713712 C23.01399,85.0972528 23.4,84.8664294 23.4,84.3127769 L23.4,81.1792763 C23.4,80.56219 22.93209,79.8038604 22.37904,79.5392537 C14.90373,75.9573142 9,79.6045742 9,88.0708213 Z" id="Path" stroke="#37C757" stroke-width="0.9" stroke-linecap="round" stroke-linejoin="round"></path>
                <path d="M24.849,109.153643 C24.78969,108.591185 24.37938,107.962239 23.89887,107.716051 C23.78664,107.657649 23.67432,107.59745 23.56164,107.535454 C21.39399,106.331471 19.39392,104.423966 17.78571,102.186714 C17.39781,101.647617 16.85574,101.388851 16.52985,101.608083 L14.6484,102.872266 C14.28147,103.118453 14.32431,103.850726 14.75514,104.464398 C17.18244,107.922705 20.24037,110.88055 23.56164,112.72516 C23.80626,112.860832 24.04899,112.989317 24.28947,113.108817 C24.84486,113.38735 25.26102,113.07108 25.19262,112.421468 L24.849,109.153643 Z" id="Path" fill="#6FF08C"></path>
                <path d="M24.849,109.153643 C24.78969,108.591185 24.37938,107.962239 23.89887,107.716051 C23.78664,107.657649 23.67432,107.59745 23.56164,107.535454 C21.39399,106.331471 19.39392,104.423966 17.78571,102.186714 C17.39781,101.647617 16.85574,101.388851 16.52985,101.608083 L14.6484,102.872266 C14.28147,103.118453 14.32431,103.850726 14.75514,104.464398 C17.18244,107.922705 20.24037,110.88055 23.56164,112.72516 C23.80626,112.860832 24.04899,112.989317 24.28947,113.108817 C24.84486,113.38735 25.26102,113.07108 25.19262,112.421468 L24.849,109.153643 Z" id="Path" stroke="#37C757" stroke-width="0.9" stroke-linecap="round" stroke-linejoin="round"></path>
                <path d="M31.64841,106.275764 C30.74121,107.866998 29.29239,108.744828 27.51732,108.77358 C27.08694,108.779869 26.88516,109.262361 27.06669,109.910175 L28.10961,113.632639 C28.31409,114.361319 28.90593,115.000149 29.39553,115.006438 C32.22711,115.041479 34.52616,113.650609 35.90667,111.071929 C36.14562,110.625377 35.90757,109.771807 35.40078,109.222827 L32.8194,106.433001 C32.37012,105.946915 31.86828,105.889411 31.64841,106.275764 Z" id="Path" fill="#37C757"></path>
                <path d="M31.64841,106.275764 C30.74121,107.866998 29.29239,108.744828 27.51732,108.77358 C27.08694,108.779869 26.88516,109.262361 27.06669,109.910175 L28.10961,113.632639 C28.31409,114.361319 28.90593,115.000149 29.39553,115.006438 C32.22711,115.041479 34.52616,113.650609 35.90667,111.071929 C36.14562,110.625377 35.90757,109.771807 35.40078,109.222827 L32.8194,106.433001 C32.37012,105.946915 31.86828,105.889411 31.64841,106.275764 Z" id="Path" stroke="#37C757" stroke-width="0.9" stroke-linecap="round" stroke-linejoin="round"></path>
                <path d="M26.86095,83.970091 L26.13195,86.6205609 C26.00397,87.0863406 26.2719,87.7834827 26.73801,88.2374921 C30.43818,91.8432417 33.07878,97.3150751 33.07878,101.99803 C33.07878,102.112139 33.07689,102.223552 33.07419,102.334966 C33.05943,102.871367 33.42375,103.539847 33.90678,103.875884 L36.70578,105.821126 C37.25613,106.203884 37.75572,106.025084 37.7829,105.419498 C37.79397,105.167021 37.8,104.91095 37.8,104.64859 C37.8,97.5711461 33.74235,89.272648 28.09098,83.9123178 C27.5688,83.4169776 27.00369,83.4510305 26.86095,83.970091 Z" id="Path" fill="#6FF08C"></path>
                <path d="M26.86095,83.970091 L26.13195,86.6205609 C26.00397,87.0863406 26.2719,87.7834827 26.73801,88.2374921 C30.43818,91.8432417 33.07878,97.3150751 33.07878,101.99803 C33.07878,102.112139 33.07689,102.223552 33.07419,102.334966 C33.05943,102.871367 33.42375,103.539847 33.90678,103.875884 L36.70578,105.821126 C37.25613,106.203884 37.75572,106.025084 37.7829,105.419498 C37.79397,105.167021 37.8,104.91095 37.8,104.64859 C37.8,97.5711461 33.74235,89.272648 28.09098,83.9123178 C27.5688,83.4169776 27.00369,83.4510305 26.86095,83.970091 Z" id="Path" stroke="#37C757" stroke-width="0.9" stroke-linecap="round" stroke-linejoin="round"></path>
                <path d="M77.4,127.568294 C77.4,124.775772 76.75641,121.790074 75.62781,118.872661 C75.35637,118.170937 74.72835,117.632738 74.2545,117.710009 L71.88741,118.096362 C71.47008,118.164647 71.34309,118.697455 71.57457,119.315619 C72.28305,121.205154 72.68328,123.132425 72.68328,124.940197 C72.68328,130.559383 68.81634,133.021259 63.8811,130.766936 C63.38601,130.541413 63,130.772327 63,131.325799 L63,134.459749 C63,135.077015 63.468,135.835345 64.02096,136.099502 C71.49636,139.681801 77.4,136.033912 77.4,127.568294 Z" id="Path" fill="#6FF08C"></path>
                <path d="M77.4,127.568294 C77.4,124.775772 76.75641,121.790074 75.62781,118.872661 C75.35637,118.170937 74.72835,117.632738 74.2545,117.710009 L71.88741,118.096362 C71.47008,118.164647 71.34309,118.697455 71.57457,119.315619 C72.28305,121.205154 72.68328,123.132425 72.68328,124.940197 C72.68328,130.559383 68.81634,133.021259 63.8811,130.766936 C63.38601,130.541413 63,130.772327 63,131.325799 L63,134.459749 C63,135.077015 63.468,135.835345 64.02096,136.099502 C71.49636,139.681801 77.4,136.033912 77.4,127.568294 Z" id="Path" stroke="#37C757" stroke-width="0.9" stroke-linecap="round" stroke-linejoin="round"></path>
                <path d="M61.551,106.485113 C61.61031,107.047571 62.02062,107.676517 62.50113,107.923603 C62.61336,107.981107 62.72559,108.041306 62.83836,108.104201 C65.00601,109.308184 67.00608,111.21479 68.61429,113.451144 C69.00219,113.99024 69.54426,114.249905 69.87006,114.031571 L71.7516,112.765592 C72.11853,112.519404 72.07569,111.78803 71.64486,111.174358 C69.21756,107.715153 66.15963,104.758206 62.83836,102.913596 C62.59374,102.777924 62.35101,102.649439 62.11053,102.529041 C61.55514,102.252304 61.13898,102.566777 61.20738,103.217288 L61.551,106.485113 Z" id="Path" fill="#37C757"></path>
                <path d="M61.551,106.485113 C61.61031,107.047571 62.02062,107.676517 62.50113,107.923603 C62.61336,107.981107 62.72559,108.041306 62.83836,108.104201 C65.00601,109.308184 67.00608,111.21479 68.61429,113.451144 C69.00219,113.99024 69.54426,114.249905 69.87006,114.031571 L71.7516,112.765592 C72.11853,112.519404 72.07569,111.78803 71.64486,111.174358 C69.21756,107.715153 66.15963,104.758206 62.83836,102.913596 C62.59374,102.777924 62.35101,102.649439 62.11053,102.529041 C61.55514,102.252304 61.13898,102.566777 61.20738,103.217288 L61.551,106.485113 Z" id="Path" stroke="#37C757" stroke-width="0.9" stroke-linecap="round" stroke-linejoin="round"></path>
                <path d="M54.75159,109.362992 C55.65888,107.771758 57.1077,106.893928 58.88268,106.865177 C59.31306,106.858887 59.51484,106.376395 59.33331,105.728581 L58.29039,102.006117 C58.08591,101.277437 57.49407,100.638607 57.00447,100.632318 C54.17289,100.597277 51.87384,101.988147 50.49333,104.566827 C50.25447,105.013379 50.49243,105.866949 50.99922,106.415929 L53.5806,109.205756 C54.02988,109.691841 54.53163,109.749345 54.75159,109.362992 Z" id="Path" fill="#6FF08C"></path>
                <path d="M54.75159,109.362992 C55.65888,107.771758 57.1077,106.893928 58.88268,106.865177 C59.31306,106.858887 59.51484,106.376395 59.33331,105.728581 L58.29039,102.006117 C58.08591,101.277437 57.49407,100.638607 57.00447,100.632318 C54.17289,100.597277 51.87384,101.988147 50.49333,104.566827 C50.25447,105.013379 50.49243,105.866949 50.99922,106.415929 L53.5806,109.205756 C54.02988,109.691841 54.53163,109.749345 54.75159,109.362992 Z" id="Path" stroke="#37C757" stroke-width="0.9" stroke-linecap="round" stroke-linejoin="round"></path>
                <path d="M59.53914,131.668126 L60.26805,129.018465 C60.39612,128.552146 60.1281,127.854914 59.66208,127.401174 C55.96182,123.795514 53.32122,118.323681 53.32122,113.640726 C53.32122,113.526617 53.32311,113.415204 53.32581,113.30379 C53.34057,112.767389 52.97634,112.098909 52.49322,111.762872 L49.69422,109.81763 C49.14378,109.434872 48.64428,109.613672 48.61701,110.219258 C48.60603,110.471735 48.6,110.728704 48.6,110.990166 C48.6,118.06761 52.65765,126.366108 58.30902,131.726528 C58.83129,132.221599 59.39631,132.187456 59.53914,131.668126 Z" id="Path" fill="#37C757"></path>
                <path d="M59.53914,131.668126 L60.26805,129.018465 C60.39612,128.552146 60.1281,127.854914 59.66208,127.401174 C55.96182,123.795514 53.32122,118.323681 53.32122,113.640726 C53.32122,113.526617 53.32311,113.415204 53.32581,113.30379 C53.34057,112.767389 52.97634,112.098909 52.49322,111.762872 L49.69422,109.81763 C49.14378,109.434872 48.64428,109.613672 48.61701,110.219258 C48.60603,110.471735 48.6,110.728704 48.6,110.990166 C48.6,118.06761 52.65765,126.366108 58.30902,131.726528 C58.83129,132.221599 59.39631,132.187456 59.53914,131.668126 Z" id="Path" stroke="#37C757" stroke-width="0.9" stroke-linecap="round" stroke-linejoin="round"></path>
                <path d="M30.51099,130.049937 L17.18892,122.18631 C16.14555,121.570841 15.3,119.917611 15.3,118.496192 C15.3,117.074773 16.14555,116.41977 17.18892,117.036138 L30.51099,124.899764 C31.55445,125.516132 32.4,127.167565 32.4,128.589883 C32.4,130.0122 31.55445,130.665406 30.51099,130.049937 Z" id="Path" fill="#6FF08C"></path>
                <path d="M30.51099,130.049937 L17.18892,122.18631 C16.14555,121.570841 15.3,119.917611 15.3,118.496192 C15.3,117.074773 16.14555,116.41977 17.18892,117.036138 L30.51099,124.899764 C31.55445,125.516132 32.4,127.167565 32.4,128.589883 C32.4,130.0122 31.55445,130.665406 30.51099,130.049937 Z" id="Path" stroke="#37C757" stroke-width="0.9" stroke-linecap="round" stroke-linejoin="round"></path>
                <path d="M34.10145,141.726775 L13.59864,129.470408 C12.55041,128.843258 11.7,127.162174 11.7,125.713801 C11.7,124.267224 12.55041,123.601439 13.59864,124.22769 L34.10145,136.484058 C35.15013,137.111208 36,138.792291 36,140.240665 C36,141.687242 35.15013,142.353026 34.10145,141.726775 Z" id="Path" fill="#37C757"></path>
                <path d="M34.10145,141.726775 L13.59864,129.470408 C12.55041,128.843258 11.7,127.162174 11.7,125.713801 C11.7,124.267224 12.55041,123.601439 13.59864,124.22769 L34.10145,136.484058 C35.15013,137.111208 36,138.792291 36,140.240665 C36,141.687242 35.15013,142.353026 34.10145,141.726775 Z" id="Path" stroke="#37C757" stroke-width="0.9" stroke-linecap="round" stroke-linejoin="round"></path>
                <path d="M26.91378,145.330638 L20.78622,141.806741 C19.74483,141.207445 18.9,139.600937 18.9,138.217255 C18.9,136.833573 19.74483,136.197438 20.78622,136.796734 L26.91378,140.319733 C27.95562,140.919927 28.8,142.526436 28.8,143.910118 C28.8,145.2938 27.95562,145.929934 26.91378,145.330638 Z" id="Path" fill="#6FF08C"></path>
                <path d="M26.91378,145.330638 L20.78622,141.806741 C19.74483,141.207445 18.9,139.600937 18.9,138.217255 C18.9,136.833573 19.74483,136.197438 20.78622,136.796734 L26.91378,140.319733 C27.95562,140.919927 28.8,142.526436 28.8,143.910118 C28.8,145.2938 27.95562,145.929934 26.91378,145.330638 Z" id="Path" stroke="#37C757" stroke-width="0.9" stroke-linecap="round" stroke-linejoin="round"></path>
                <path d="M71.90514,154.321876 L54.09432,144.37464 C53.04816,143.78972 52.2,142.222745 52.2,140.872307 C52.2,139.522768 53.04816,138.902806 54.09432,139.486828 L71.90514,149.434064 C72.95139,150.018086 73.8,151.585959 73.8,152.9346 C73.8,154.284139 72.95139,154.905897 71.90514,154.321876 Z" id="Path" fill="#6FF08C"></path>
                <path d="M71.90514,154.321876 L54.09432,144.37464 C53.04816,143.78972 52.2,142.222745 52.2,140.872307 C52.2,139.522768 53.04816,138.902806 54.09432,139.486828 L71.90514,149.434064 C72.95139,150.018086 73.8,151.585959 73.8,152.9346 C73.8,154.284139 72.95139,154.905897 71.90514,154.321876 Z" id="Path" stroke="#37C757" stroke-width="0.9" stroke-linecap="round" stroke-linejoin="round"></path>
                <path d="M67.40496,160.599659 L58.59504,155.422532 C57.54816,154.807961 56.7,153.158325 56.7,151.738703 C56.7,150.318183 57.54816,149.664977 58.59504,150.279548 L67.40496,155.456675 C68.45139,156.071245 69.3,157.720882 69.3,159.141402 C69.3,160.561024 68.45139,161.21423 67.40496,160.599659 Z" id="Path" fill="#37C757"></path>
                <path d="M67.40496,160.599659 L58.59504,155.422532 C57.54816,154.807961 56.7,153.158325 56.7,151.738703 C56.7,150.318183 57.54816,149.664977 58.59504,150.279548 L67.40496,155.456675 C68.45139,156.071245 69.3,157.720882 69.3,159.141402 C69.3,160.561024 68.45139,161.21423 67.40496,160.599659 Z" id="Path" stroke="#37C757" stroke-width="0.9" stroke-linecap="round" stroke-linejoin="round"></path>
                <path d="M69.22683,170.484001 L55.87308,162.584434 C54.83889,161.972559 54,160.331009 54,158.917677 C54,157.504344 54.83889,156.854733 55.87308,157.466608 L69.22683,165.366174 C70.2612,165.978049 71.1,167.619599 71.1,169.032931 C71.1,170.446264 70.2612,171.095876 69.22683,170.484001 Z" id="Path" fill="#6FF08C"></path>
                <path d="M69.22683,170.484001 L55.87308,162.584434 C54.83889,161.972559 54,160.331009 54,158.917677 C54,157.504344 54.83889,156.854733 55.87308,157.466608 L69.22683,165.366174 C70.2612,165.978049 71.1,167.619599 71.1,169.032931 C71.1,170.446264 70.2612,171.095876 69.22683,170.484001 Z" id="Path" stroke="#37C757" stroke-width="0.9" stroke-linecap="round" stroke-linejoin="round"></path>
                <path d="M103.5,135.415748 C103.5,135.415748 114.0228,118.281452 122.3541,129.617761 C130.6854,140.95407 142.8525,131.103871 147.6756,120.123366 C151.8966,110.515761 156.2454,95.602544 166.5,89.8494817 L166.5,123.020113 L103.5,159.033583 L103.5,135.415748 Z" id="Path" fill="#37C757"></path>
                <path d="M103.5,135.415748 C103.5,135.415748 114.0228,118.281452 122.3541,129.617761 C130.6854,140.95407 142.8525,131.103871 147.6756,120.123366 C151.8966,110.515761 156.2454,95.602544 166.5,89.8494817 L166.5,123.020113 L103.5,159.033583 L103.5,135.415748 Z" id="Path" stroke="#37C757" stroke-width="0.9" stroke-linecap="round" stroke-linejoin="round"></path>
                <path d="M103.5,154.163741 C103.5,154.163741 114.3522,147.360338 120.7098,126.987866 C127.0683,106.613598 137.2626,92.5216053 149.4297,101.692542 C157.0347,107.423142 161.8713,108.208426 166.5,105.584821 L166.5,122.912294 L103.5,159.033583 L103.5,154.163741 Z" id="Path" fill="#6FF08C"></path>
                <path d="M103.5,154.163741 C103.5,154.163741 114.3522,147.360338 120.7098,126.987866 C127.0683,106.613598 137.2626,92.5216053 149.4297,101.692542 C157.0347,107.423142 161.8713,108.208426 166.5,105.584821 L166.5,122.912294 L103.5,159.033583 L103.5,154.163741 Z" id="Path" stroke="#37C757" stroke-width="0.9" stroke-linecap="round" stroke-linejoin="round"></path>
                <line x1="103.95" y1="115.007337" x2="103.95" y2="164.424551" id="Path" stroke="#37C757" stroke-width="0.9" stroke-linecap="round"></line>
                <path d="M107.3151,170.703233 L101.4849,174.114818 C100.6101,174.627859 99.9,174.084269 99.9,172.900053 L99.9,172.896459 C99.9,171.71404 100.6101,170.338444 101.4849,169.827201 L107.3151,166.414718 C108.1908,165.901677 108.9,166.446165 108.9,167.629482 L108.9,167.633076 C108.9,168.815496 108.1908,170.190193 107.3151,170.703233 Z" id="Path" fill="#6FF08C"></path>
                <path d="M107.3151,170.703233 L101.4849,174.114818 C100.6101,174.627859 99.9,174.084269 99.9,172.900053 L99.9,172.896459 C99.9,171.71404 100.6101,170.338444 101.4849,169.827201 L107.3151,166.414718 C108.1908,165.901677 108.9,166.446165 108.9,167.629482 L108.9,167.633076 C108.9,168.815496 108.1908,170.190193 107.3151,170.703233 Z" id="Path" stroke="#37C757" stroke-width="0.9" stroke-linecap="round" stroke-linejoin="round"></path>
                <line x1="125.55" y1="102.428409" x2="125.55" y2="151.845624" id="Path" stroke="#37C757" stroke-width="0.9" stroke-linecap="round"></line>
                <path d="M128.0151,158.124306 L122.1849,161.536789 C121.3101,162.048033 120.6,161.504443 120.6,160.322024 L120.6,160.31843 C120.6,159.135112 121.3101,157.759517 122.1849,157.247375 L128.0151,153.834892 C128.8908,153.323648 129.6,153.867237 129.6,155.049657 L129.6,155.053251 C129.6,156.237467 128.8908,157.611265 128.0151,158.124306 Z" id="Path" fill="#37C757"></path>
                <path d="M128.0151,158.124306 L122.1849,161.536789 C121.3101,162.048033 120.6,161.504443 120.6,160.322024 L120.6,160.31843 C120.6,159.135112 121.3101,157.759517 122.1849,157.247375 L128.0151,153.834892 C128.8908,153.323648 129.6,153.867237 129.6,155.049657 L129.6,155.053251 C129.6,156.237467 128.8908,157.611265 128.0151,158.124306 Z" id="Path" stroke="#37C757" stroke-width="0.9" stroke-linecap="round" stroke-linejoin="round"></path>
                <line x1="146.25" y1="90.7479765" x2="146.25" y2="140.165191" id="Path" stroke="#37C757" stroke-width="0.9" stroke-linecap="round"></line>
                <path d="M148.7151,146.443873 L142.8858,149.856357 C142.0101,150.3676 141.3,149.824011 141.3,148.641592 L141.3,148.637998 C141.3,147.45468 142.0101,146.079084 142.8858,145.566942 L148.7151,142.154459 C149.5908,141.643215 150.3,142.186805 150.3,143.369224 L150.3,143.372818 C150.3,144.556136 149.5908,145.930833 148.7151,146.443873 Z" id="Path" fill="#6FF08C"></path>
                <path d="M148.7151,146.443873 L142.8858,149.856357 C142.0101,150.3676 141.3,149.824011 141.3,148.641592 L141.3,148.637998 C141.3,147.45468 142.0101,146.079084 142.8858,145.566942 L148.7151,142.154459 C149.5908,141.643215 150.3,142.186805 150.3,143.369224 L150.3,143.372818 C150.3,144.556136 149.5908,145.930833 148.7151,146.443873 Z" id="Path" stroke="#37C757" stroke-width="0.9" stroke-linecap="round" stroke-linejoin="round"></path>
                <line x1="166.95" y1="127.586264" x2="166.95" y2="78.1690491" id="Path" stroke="#37C757" stroke-width="0.9" stroke-linecap="round"></line>
                <path d="M170.3142,133.864047 L164.4849,137.276531 C163.6092,137.789571 162.9,137.245982 162.9,136.061766 L162.9,136.058172 C162.9,134.875752 163.6092,133.501055 164.4849,132.988015 L170.3142,129.575532 C171.1899,129.064288 171.9,129.607877 171.9,130.791195 L171.9,130.79389 C171.9,131.978107 171.1899,133.352804 170.3142,133.864047 Z" id="Path" fill="#37C757"></path>
                <path d="M170.3142,133.864047 L164.4849,137.276531 C163.6092,137.789571 162.9,137.245982 162.9,136.061766 L162.9,136.058172 C162.9,134.875752 163.6092,133.501055 164.4849,132.988015 L170.3142,129.575532 C171.1899,129.064288 171.9,129.607877 171.9,130.791195 L171.9,130.79389 C171.9,131.978107 171.1899,133.352804 170.3142,133.864047 Z" id="Path" stroke="#37C757" stroke-width="0.9" stroke-linecap="round" stroke-linejoin="round"></path>
                <line x1="125.1" y1="81.7630283" x2="120.6" y2="79.0675439" id="Path" stroke="#37C757" stroke-width="0.9" stroke-linecap="round" stroke-linejoin="round"></line>
                <line x1="127.8" y1="79.9660387" x2="123.3" y2="77.2705543" id="Path" stroke="#37C757" stroke-width="0.9" stroke-linecap="round" stroke-linejoin="round"></line>
                <line x1="130.5" y1="78.1690491" x2="126" y2="75.4735646" id="Path" stroke="#37C757" stroke-width="0.9" stroke-linecap="round" stroke-linejoin="round"></line>
                <line x1="133.2" y1="76.3720594" x2="128.7" y2="73.676575" id="Path" stroke="#37C757" stroke-width="0.9" stroke-linecap="round" stroke-linejoin="round"></line>
                <line x1="136.8" y1="75.4735646" x2="132.3" y2="72.7780802" id="Path" stroke="#37C757" stroke-width="0.9" stroke-linecap="round" stroke-linejoin="round"></line>
                <line x1="139.5" y1="73.676575" x2="135" y2="70.9810905" id="Path" stroke="#37C757" stroke-width="0.9" stroke-linecap="round" stroke-linejoin="round"></line>
                <line x1="47.7" y1="72.7780802" x2="43.2" y2="75.4735646" id="Path" stroke="#37C757" stroke-width="0.9" stroke-linecap="round" stroke-linejoin="round"></line>
                <line x1="50.4" y1="73.676575" x2="45.9" y2="76.3720594" id="Path" stroke="#37C757" stroke-width="0.9" stroke-linecap="round" stroke-linejoin="round"></line>
                <line x1="53.1" y1="75.4735646" x2="48.6" y2="78.1690491" id="Path" stroke="#37C757" stroke-width="0.9" stroke-linecap="round" stroke-linejoin="round"></line>
                <line x1="55.8" y1="77.2705543" x2="51.3" y2="79.9660387" id="Path" stroke="#37C757" stroke-width="0.9" stroke-linecap="round" stroke-linejoin="round"></line>
                <line x1="58.5" y1="79.0675439" x2="54" y2="81.7630283" id="Path" stroke="#37C757" stroke-width="0.9" stroke-linecap="round" stroke-linejoin="round"></line>
                <line x1="61.2" y1="80.8645335" x2="56.7" y2="83.560018" id="Path" stroke="#37C757" stroke-width="0.9" stroke-linecap="round" stroke-linejoin="round"></line>
                <line x1="122.4" y1="24.2593601" x2="117.9" y2="26.9548445" id="Path" stroke="#37C757" stroke-width="0.9" stroke-linecap="round" stroke-linejoin="round"></line>
                <line x1="125.1" y1="26.0563497" x2="120.6" y2="28.7518341" id="Path" stroke="#37C757" stroke-width="0.9" stroke-linecap="round" stroke-linejoin="round"></line>
                <line x1="128.7" y1="27.8533393" x2="124.2" y2="30.5488238" id="Path" stroke="#37C757" stroke-width="0.9" stroke-linecap="round" stroke-linejoin="round"></line>
                <line x1="131.4" y1="29.650329" x2="126.9" y2="32.3458134" id="Path" stroke="#37C757" stroke-width="0.9" stroke-linecap="round" stroke-linejoin="round"></line>
                <line x1="134.1" y1="31.4473186" x2="129.6" y2="34.142803" id="Path" stroke="#37C757" stroke-width="0.9" stroke-linecap="round" stroke-linejoin="round"></line>
                <line x1="136.8" y1="32.3458134" x2="132.3" y2="35.0412979" id="Path" stroke="#37C757" stroke-width="0.9" stroke-linecap="round" stroke-linejoin="round"></line>
                <line x1="46.8" y1="35.9397927" x2="42.3" y2="33.2443082" id="Path" stroke="#37C757" stroke-width="0.9" stroke-linecap="round" stroke-linejoin="round"></line>
                <line x1="49.5" y1="34.142803" x2="45" y2="31.4473186" id="Path" stroke="#37C757" stroke-width="0.9" stroke-linecap="round" stroke-linejoin="round"></line>
                <line x1="52.2" y1="32.3458134" x2="47.7" y2="29.650329" id="Path" stroke="#37C757" stroke-width="0.9" stroke-linecap="round" stroke-linejoin="round"></line>
                <line x1="54.9" y1="31.4473186" x2="50.4" y2="28.7518341" id="Path" stroke="#37C757" stroke-width="0.9" stroke-linecap="round" stroke-linejoin="round"></line>
                <line x1="57.6" y1="29.650329" x2="53.1" y2="26.9548445" id="Path" stroke="#37C757" stroke-width="0.9" stroke-linecap="round" stroke-linejoin="round"></line>
                <line x1="60.3" y1="27.8533393" x2="55.8" y2="25.1578549" id="Path" stroke="#37C757" stroke-width="0.9" stroke-linecap="round" stroke-linejoin="round"></line>
                <polygon id="Path" stroke="#37C757" stroke-width="0.9" stroke-linecap="round" stroke-linejoin="round" points="87.8148 67.3871113 113.4 28.7518341 72 30.2912253"></polygon>
                <path d="M102.6,55.7616665 C102.6,56.0575409 102.4227,56.341016 102.0636,56.5526115 L88.73946,64.3762551 C87.94314,64.843742 86.55498,64.7844413 85.63617,64.2450749 L72.75915,56.6837918 C72.28683,56.4086726 72.03123,56.0575409 72,55.7216835 L72,55.5987694 C72.02079,55.3198766 72.19773,55.0594928 72.53658,54.8606559 L85.85829,47.0371022 C86.65452,46.5695255 88.04349,46.628916 88.96203,47.1681926 L101.8386,54.7299249 C102.3426,55.0257993 102.6,55.4022686 102.6,55.7616665 Z" id="Path" fill="#000000"></path>
                <path d="M102.6,55.7616665 C102.6,56.0575409 102.4227,56.341016 102.0636,56.5526115 L88.73946,64.3762551 C87.94314,64.843742 86.55498,64.7844413 85.63617,64.2450749 L72.75915,56.6837918 C72.28683,56.4086726 72.03123,56.0575409 72,55.7216835 L72,55.5987694 C72.02079,55.3198766 72.19773,55.0594928 72.53658,54.8606559 L85.85829,47.0371022 C86.65452,46.5695255 88.04349,46.628916 88.96203,47.1681926 L101.8386,54.7299249 C102.3426,55.0257993 102.6,55.4022686 102.6,55.7616665 Z" id="Path" stroke="#37C757" stroke-width="0.9" stroke-linecap="round" stroke-linejoin="round"></path>
                <path d="M102.6,55.7463921 L102.6,74.6863933 C102.6,74.9809199 102.4227,75.2620589 102.0636,75.4723966 L88.73946,83.2456346 C87.94314,83.7102463 86.55498,83.6535513 85.63617,83.117689 L72.75915,75.6025885 C72.28683,75.3292663 72.03123,74.9809199 72,74.6466798 L72,55.7066786 C72.03123,56.0404695 72.28683,56.3892652 72.75915,56.6626771 L85.63617,64.1754415 C86.55498,64.711214 87.94314,64.7702451 88.73946,64.3056334 L102.0636,56.5323954 C102.4227,56.3220577 102.6,56.0404695 102.6,55.7463921 Z" id="Path" fill="#000000"></path>
                <path d="M102.6,55.7463921 L102.6,74.6863933 C102.6,74.9809199 102.4227,75.2620589 102.0636,75.4723966 L88.73946,83.2456346 C87.94314,83.7102463 86.55498,83.6535513 85.63617,83.117689 L72.75915,75.6025885 C72.28683,75.3292663 72.03123,74.9809199 72,74.6466798 L72,55.7066786 C72.03123,56.0404695 72.28683,56.3892652 72.75915,56.6626771 L85.63617,64.1754415 C86.55498,64.711214 87.94314,64.7702451 88.73946,64.3056334 L102.0636,56.5323954 C102.4227,56.3220577 102.6,56.0404695 102.6,55.7463921 Z" id="Path" stroke="#37C757" stroke-width="0.9" stroke-linecap="round" stroke-linejoin="round"></path>
                <path d="M84.6,69.3039601 L84.6,77.5551974 C84.6,77.7780241 84.48723,77.9602389 84.32289,78.0681481 L84.26529,78.0999548 C84.09033,78.1913317 83.87019,78.1977111 83.67624,78.0852195 L76.293,73.8523206 C75.86406,73.6064924 75.6,73.1507758 75.6,72.6572326 L75.6,64.4077923 C75.6,64.1914347 75.70629,64.0115561 75.86226,63.9054438 L75.9537,63.8524327 C76.12695,63.7717478 76.33575,63.7676147 76.52331,63.8759732 L78.04233,64.7467944 L78.35616,64.9271223 L83.907,68.110759 C84.33774,68.3565872 84.6,68.8122139 84.6,69.3039601 Z" id="Path" fill="#6FF08C"></path>
                <path d="M84.6,69.3039601 L84.6,77.5551974 C84.6,77.7780241 84.48723,77.9602389 84.32289,78.0681481 L84.26529,78.0999548 C84.09033,78.1913317 83.87019,78.1977111 83.67624,78.0852195 L76.293,73.8523206 C75.86406,73.6064924 75.6,73.1507758 75.6,72.6572326 L75.6,64.4077923 C75.6,64.1914347 75.70629,64.0115561 75.86226,63.9054438 L75.9537,63.8524327 C76.12695,63.7717478 76.33575,63.7676147 76.52331,63.8759732 L78.04233,64.7467944 L78.35616,64.9271223 L83.907,68.110759 C84.33774,68.3565872 84.6,68.8122139 84.6,69.3039601 Z" id="Path" stroke="#37C757" stroke-width="0.9" stroke-linecap="round" stroke-linejoin="round"></path>
                <path d="M84.6,68.8105068 L84.6,74.5750698 L78.9993,71.5811952 C78.56703,71.3499227 78.3,70.9210711 78.3,70.4561 L78.3,64.6916268 L83.9007,67.6875679 C84.3354,67.9189303 84.6,68.3478718 84.6,68.8105068 Z" id="Path" fill="#37C757"></path>
                <path d="M84.6,68.8105068 L84.6,74.5750698 L78.9993,71.5811952 C78.56703,71.3499227 78.3,70.9210711 78.3,70.4561 L78.3,64.6916268 L83.9007,67.6875679 C84.3354,67.9189303 84.6,68.3478718 84.6,68.8105068 Z" id="Path" stroke="#37C757" stroke-width="0.9" stroke-linecap="round" stroke-linejoin="round"></path>
                <path d="M90.9,69.3039601 L90.9,77.5551974 C90.9,77.7780241 91.0125,77.9602389 91.1772,78.0681481 L91.2348,78.0999548 C91.4103,78.1913317 91.6299,78.1977111 91.8234,78.0852195 L99.2079,73.8523206 C99.6363,73.6064924 99.9,73.1507758 99.9,72.6572326 L99.9,64.4077923 C99.9,64.1914347 99.7947,64.0115561 99.6381,63.9054438 L99.5472,63.8524327 C99.3735,63.7717478 99.1638,63.7676147 98.9775,63.8759732 L97.4574,64.7467944 L97.1442,64.9271223 L91.593,68.110759 C91.1619,68.3565872 90.9,68.8122139 90.9,69.3039601 Z" id="Path" fill="#6FF08C"></path>
                <path d="M90.9,69.3039601 L90.9,77.5551974 C90.9,77.7780241 91.0125,77.9602389 91.1772,78.0681481 L91.2348,78.0999548 C91.4103,78.1913317 91.6299,78.1977111 91.8234,78.0852195 L99.2079,73.8523206 C99.6363,73.6064924 99.9,73.1507758 99.9,72.6572326 L99.9,64.4077923 C99.9,64.1914347 99.7947,64.0115561 99.6381,63.9054438 L99.5472,63.8524327 C99.3735,63.7717478 99.1638,63.7676147 98.9775,63.8759732 L97.4574,64.7467944 L97.1442,64.9271223 L91.593,68.110759 C91.1619,68.3565872 90.9,68.8122139 90.9,69.3039601 Z" id="Path" stroke="#37C757" stroke-width="0.9" stroke-linecap="round" stroke-linejoin="round"></path>
                <path d="M90.9,68.8105068 L90.9,74.5750698 L96.5007,71.5811952 C96.9327,71.3499227 97.2,70.9210711 97.2,70.4561 L97.2,64.6916268 L91.5993,67.6875679 C91.1646,67.9189303 90.9,68.3478718 90.9,68.8105068 Z" id="Path" fill="#37C757"></path>
                <path d="M90.9,68.8105068 L90.9,74.5750698 L96.5007,71.5811952 C96.9327,71.3499227 97.2,70.9210711 97.2,70.4561 L97.2,64.6916268 L91.5993,67.6875679 C91.1646,67.9189303 90.9,68.3478718 90.9,68.8105068 Z" id="Path" stroke="#37C757" stroke-width="0.9" stroke-linecap="round" stroke-linejoin="round"></path>
                <path d="M123.3,23.8458727 C123.3,24.0384202 123.1803,24.2227913 122.9364,24.3598118 L113.9238,29.4456518 C113.3847,29.7490735 112.446,29.7107078 111.8241,29.3601151 L103.113,24.4449891 C102.7944,24.2664582 102.6216,24.0384202 102.6,23.8198164 L102.6,23.7400301 C102.6144,23.5588036 102.7332,23.3897968 102.9636,23.2604135 L111.9753,18.1749329 C112.5135,17.8710619 113.4522,17.9094276 114.075,18.2601102 L122.7852,23.1751464 C123.1254,23.3676039 123.3,23.6124438 123.3,23.8458727 Z" id="Path" fill="#000000"></path>
                <path d="M123.3,23.8458727 C123.3,24.0384202 123.1803,24.2227913 122.9364,24.3598118 L113.9238,29.4456518 C113.3847,29.7490735 112.446,29.7107078 111.8241,29.3601151 L103.113,24.4449891 C102.7944,24.2664582 102.6216,24.0384202 102.6,23.8198164 L102.6,23.7400301 C102.6144,23.5588036 102.7332,23.3897968 102.9636,23.2604135 L111.9753,18.1749329 C112.5135,17.8710619 113.4522,17.9094276 114.075,18.2601102 L122.7852,23.1751464 C123.1254,23.3676039 123.3,23.6124438 123.3,23.8458727 Z" id="Path" stroke="#37C757" stroke-width="0.9" stroke-linecap="round" stroke-linejoin="round"></path>
                <path d="M123.3,24.285057 L123.3,36.5045865 C123.3,36.6944385 123.1803,36.8757547 122.9364,37.0114274 L113.9238,42.0264661 C113.3847,42.3261141 112.446,42.2897251 111.8241,41.9438046 L103.113,37.0953469 C102.7944,36.9193317 102.6216,36.6944385 102.6,36.4788896 L102.6,24.2593601 C102.6216,24.474909 102.7944,24.6998921 103.113,24.8759072 L111.8241,29.7229273 C112.446,30.0688478 113.3847,30.1065846 113.9238,29.8074757 L122.9364,24.7918081 C123.1803,24.6566745 123.3,24.474909 123.3,24.285057 Z" id="Path" fill="#000000"></path>
                <path d="M123.3,24.285057 L123.3,36.5045865 C123.3,36.6944385 123.1803,36.8757547 122.9364,37.0114274 L113.9238,42.0264661 C113.3847,42.3261141 112.446,42.2897251 111.8241,41.9438046 L103.113,37.0953469 C102.7944,36.9193317 102.6216,36.6944385 102.6,36.4788896 L102.6,24.2593601 C102.6216,24.474909 102.7944,24.6998921 103.113,24.8759072 L111.8241,29.7229273 C112.446,30.0688478 113.3847,30.1065846 113.9238,29.8074757 L122.9364,24.7918081 C123.1803,24.6566745 123.3,24.474909 123.3,24.285057 Z" id="Path" stroke="#37C757" stroke-width="0.9" stroke-linecap="round" stroke-linejoin="round"></path>
                <path d="M110.7,33.0945291 L110.7,38.2519792 C110.7,38.3909764 110.6316,38.5047258 110.5335,38.5721129 L110.4984,38.5920595 C110.394,38.6490241 110.2617,38.6533369 110.1456,38.5829847 L105.7158,35.9376363 C105.4584,35.783814 105.3,35.4988114 105.3,35.1903581 L105.3,30.0343456 C105.3,29.899212 105.3639,29.7867205 105.4575,29.7206811 L105.5124,29.6871672 C105.6159,29.6372109 105.7419,29.6342459 105.8544,29.7019924 L106.7652,30.2463904 L106.9542,30.358882 L110.2833,32.3485987 C110.5425,32.5024211 110.7,32.7874236 110.7,33.0945291 Z" id="Path" fill="#6FF08C"></path>
                <path d="M110.7,33.0945291 L110.7,38.2519792 C110.7,38.3909764 110.6316,38.5047258 110.5335,38.5721129 L110.4984,38.5920595 C110.394,38.6490241 110.2617,38.6533369 110.1456,38.5829847 L105.7158,35.9376363 C105.4584,35.783814 105.3,35.4988114 105.3,35.1903581 L105.3,30.0343456 C105.3,29.899212 105.3639,29.7867205 105.4575,29.7206811 L105.5124,29.6871672 C105.6159,29.6372109 105.7419,29.6342459 105.8544,29.7019924 L106.7652,30.2463904 L106.9542,30.358882 L110.2833,32.3485987 C110.5425,32.5024211 110.7,32.7874236 110.7,33.0945291 Z" id="Path" stroke="#37C757" stroke-width="0.9" stroke-linecap="round" stroke-linejoin="round"></path>
                <path d="M115.2,33.0945291 L115.2,38.2519792 C115.2,38.3909764 115.2675,38.5047258 115.3656,38.5721129 L115.4007,38.5920595 C115.5051,38.6490241 115.6374,38.6533369 115.7535,38.5829847 L120.1842,35.9376363 C120.4416,35.783814 120.6,35.4988114 120.6,35.1903581 L120.6,30.0343456 C120.6,29.899212 120.5361,29.7867205 120.4434,29.7206811 L120.3876,29.6871672 C120.2841,29.6372109 120.159,29.6342459 120.0456,29.7019924 L119.1348,30.2463904 L118.9467,30.358882 L115.6158,32.3485987 C115.3566,32.5024211 115.2,32.7874236 115.2,33.0945291 Z" id="Path" fill="#37C757"></path>
                <path d="M115.2,33.0945291 L115.2,38.2519792 C115.2,38.3909764 115.2675,38.5047258 115.3656,38.5721129 L115.4007,38.5920595 C115.5051,38.6490241 115.6374,38.6533369 115.7535,38.5829847 L120.1842,35.9376363 C120.4416,35.783814 120.6,35.4988114 120.6,35.1903581 L120.6,30.0343456 C120.6,29.899212 120.5361,29.7867205 120.4434,29.7206811 L120.3876,29.6871672 C120.2841,29.6372109 120.159,29.6342459 120.0456,29.7019924 L119.1348,30.2463904 L118.9467,30.358882 L115.6158,32.3485987 C115.3566,32.5024211 115.2,32.7874236 115.2,33.0945291 Z" id="Path" stroke="#37C757" stroke-width="0.9" stroke-linecap="round" stroke-linejoin="round"></path>
                <path d="M83.7,23.8514434 C83.7,24.0736412 83.56995,24.2860454 83.30544,24.4447195 L73.50849,30.3122501 C72.92313,30.6628428 71.90217,30.6184571 71.22636,30.2142243 L61.75791,24.5427453 C61.41096,24.3369002 61.22295,24.0736412 61.2,23.8210743 L61.2,23.7290684 C61.2153,23.5199887 61.34535,23.3248356 61.59456,23.175955 L71.38971,17.3078854 C71.97552,16.9573825 72.99639,17.0016783 73.6722,17.4064502 L83.14029,23.07748 C83.51064,23.2996777 83.7,23.5816254 83.7,23.8514434 Z" id="Path" fill="#000000"></path>
                <path d="M83.7,23.8514434 C83.7,24.0736412 83.56995,24.2860454 83.30544,24.4447195 L73.50849,30.3122501 C72.92313,30.6628428 71.90217,30.6184571 71.22636,30.2142243 L61.75791,24.5427453 C61.41096,24.3369002 61.22295,24.0736412 61.2,23.8210743 L61.2,23.7290684 C61.2153,23.5199887 61.34535,23.3248356 61.59456,23.175955 L71.38971,17.3078854 C71.97552,16.9573825 72.99639,17.0016783 73.6722,17.4064502 L83.14029,23.07748 C83.51064,23.2996777 83.7,23.5816254 83.7,23.8514434 Z" id="Path" stroke="#37C757" stroke-width="0.9" stroke-linecap="round" stroke-linejoin="round"></path>
                <path d="M83.7,23.3907851 L83.7,37.4428847 C83.7,37.6612189 83.56995,37.8700291 83.30544,38.0260078 L73.50849,43.7931765 C72.92313,44.1377492 71.90217,44.09552 71.22636,43.6982056 L61.75791,38.1223264 C61.41096,37.9199854 61.22295,37.6612189 61.2,37.4131445 L61.2,23.3608652 C61.22295,23.6091194 61.41096,23.8678859 61.75791,24.0702269 L71.22636,29.6446684 C71.90217,30.0419828 72.92313,30.0855598 73.50849,29.7409871 L83.30544,23.9738184 C83.56995,23.8178397 83.7,23.6091194 83.7,23.3907851 Z" id="Path" fill="#000000"></path>
                <path d="M83.7,23.3907851 L83.7,37.4428847 C83.7,37.6612189 83.56995,37.8700291 83.30544,38.0260078 L73.50849,43.7931765 C72.92313,44.1377492 71.90217,44.09552 71.22636,43.6982056 L61.75791,38.1223264 C61.41096,37.9199854 61.22295,37.6612189 61.2,37.4131445 L61.2,23.3608652 C61.22295,23.6091194 61.41096,23.8678859 61.75791,24.0702269 L71.22636,29.6446684 C71.90217,30.0419828 72.92313,30.0855598 73.50849,29.7409871 L83.30544,23.9738184 C83.56995,23.8178397 83.7,23.6091194 83.7,23.3907851 Z" id="Path" stroke="#37C757" stroke-width="0.9" stroke-linecap="round" stroke-linejoin="round"></path>
                <path d="M69.3,32.8848204 L69.3,39.073473 C69.3,39.2405032 69.22089,39.3771643 69.10569,39.4580288 L69.06582,39.4819288 C68.94315,39.5503042 68.78925,39.5553358 68.65344,39.4711469 L63.48528,36.2964053 C63.18549,36.1120341 63,35.7699772 63,35.3998871 L63,29.212762 C63,29.050404 63.0747,28.9156297 63.18369,28.836113 L63.24786,28.7963096 C63.36873,28.7359308 63.51507,28.7326064 63.64656,28.8136506 L64.70973,29.4673056 L64.92951,29.6019899 L68.81481,31.9897399 C69.11631,32.174111 69.3,32.5162579 69.3,32.8848204 Z" id="Path" fill="#6FF08C"></path>
                <path d="M69.3,32.8848204 L69.3,39.073473 C69.3,39.2405032 69.22089,39.3771643 69.10569,39.4580288 L69.06582,39.4819288 C68.94315,39.5503042 68.78925,39.5553358 68.65344,39.4711469 L63.48528,36.2964053 C63.18549,36.1120341 63,35.7699772 63,35.3998871 L63,29.212762 C63,29.050404 63.0747,28.9156297 63.18369,28.836113 L63.24786,28.7963096 C63.36873,28.7359308 63.51507,28.7326064 63.64656,28.8136506 L64.70973,29.4673056 L64.92951,29.6019899 L68.81481,31.9897399 C69.11631,32.174111 69.3,32.5162579 69.3,32.8848204 Z" id="Path" stroke="#37C757" stroke-width="0.9" stroke-linecap="round" stroke-linejoin="round"></path>
                <path d="M74.7,32.8848204 L74.7,39.073473 C74.7,39.2405032 74.77911,39.3771643 74.89431,39.4580288 L74.93427,39.4819288 C75.05685,39.5503042 75.21075,39.5553358 75.34656,39.4711469 L80.51481,36.2964053 C80.81451,36.1120341 81,35.7699772 81,35.3998871 L81,29.212762 C81,29.050404 80.9253,28.9156297 80.81631,28.836113 L80.75214,28.7963096 C80.63127,28.7359308 80.48493,28.7326064 80.35353,28.8136506 L79.29036,29.4673056 L79.07058,29.6019899 L75.18528,31.9897399 C74.88378,32.174111 74.7,32.5162579 74.7,32.8848204 Z" id="Path" fill="#37C757"></path>
                <path d="M74.7,32.8848204 L74.7,39.073473 C74.7,39.2405032 74.77911,39.3771643 74.89431,39.4580288 L74.93427,39.4819288 C75.05685,39.5503042 75.21075,39.5553358 75.34656,39.4711469 L80.51481,36.2964053 C80.81451,36.1120341 81,35.7699772 81,35.3998871 L81,29.212762 C81,29.050404 80.9253,28.9156297 80.81631,28.836113 L80.75214,28.7963096 C80.63127,28.7359308 80.48493,28.7326064 80.35353,28.8136506 L79.29036,29.4673056 L79.07058,29.6019899 L75.18528,31.9897399 C74.88378,32.174111 74.7,32.5162579 74.7,32.8848204 Z" id="Path" stroke="#37C757" stroke-width="0.9" stroke-linecap="round" stroke-linejoin="round"></path>
                <path d="M171.9,53.4599924 C171.9,53.7518235 171.8433,54.0450023 171.7308,54.3314425 C171.4464,55.0603913 170.7993,55.7533105 169.7904,56.319542 C166.9788,57.8983771 162.4212,57.8983771 159.6096,56.319542 C158.5998,55.7533105 157.9518,55.0603913 157.6683,54.3314425 C157.5567,54.0450023 157.5,53.7518235 157.5,53.4599924 C157.5,52.425735 158.202,51.3917471 159.6096,50.6017006 C162.4212,49.0224163 166.9788,49.0224163 169.7904,50.6017006 C171.1962,51.3917471 171.9,52.425735 171.9,53.4599924 Z" id="Path" fill="#6FF08C"></path>
                <path d="M171.9,53.4599924 C171.9,53.7518235 171.8433,54.0450023 171.7308,54.3314425 C171.4464,55.0603913 170.7993,55.7533105 169.7904,56.319542 C166.9788,57.8983771 162.4212,57.8983771 159.6096,56.319542 C158.5998,55.7533105 157.9518,55.0603913 157.6683,54.3314425 C157.5567,54.0450023 157.5,53.7518235 157.5,53.4599924 C157.5,52.425735 158.202,51.3917471 159.6096,50.6017006 C162.4212,49.0224163 166.9788,49.0224163 169.7904,50.6017006 C171.1962,51.3917471 171.9,52.425735 171.9,53.4599924 Z" id="Path" stroke="#37C757" stroke-width="0.9" stroke-linecap="round"></path>
                <path d="M168.3,47.0082605 C168.3,44.8649011 166.4865,43.1277512 164.2509,43.1277512 C162.0144,43.1277512 160.2,44.8649011 160.2,47.0082605 L160.2,53.291255 L160.2009,53.291255 C160.2009,53.291255 160.2,53.291255 160.2,53.2917043 C160.2,53.4012308 160.2315,53.5110269 160.2954,53.6183071 C160.4547,53.8919887 160.8192,54.1517435 161.3862,54.363968 C162.9684,54.9562558 165.5325,54.9562558 167.1138,54.363968 C167.6817,54.1517435 168.0453,53.8919887 168.2055,53.6183071 C168.2694,53.5110269 168.3,53.4012308 168.3,53.2917043 C168.3,53.291255 168.3,53.291255 168.3,53.291255 L168.3,47.0082605 Z" id="Path" fill="#000000"></path>
                <path d="M168.3,47.0082605 C168.3,44.8649011 166.4865,43.1277512 164.2509,43.1277512 C162.0144,43.1277512 160.2,44.8649011 160.2,47.0082605 L160.2,53.291255 L160.2009,53.291255 C160.2009,53.291255 160.2,53.291255 160.2,53.2917043 C160.2,53.4012308 160.2315,53.5110269 160.2954,53.6183071 C160.4547,53.8919887 160.8192,54.1517435 161.3862,54.363968 C162.9684,54.9562558 165.5325,54.9562558 167.1138,54.363968 C167.6817,54.1517435 168.0453,53.8919887 168.2055,53.6183071 C168.2694,53.5110269 168.3,53.4012308 168.3,53.2917043 C168.3,53.291255 168.3,53.291255 168.3,53.291255 L168.3,47.0082605 Z" id="Path" stroke="#37C757" stroke-width="0.9" stroke-linecap="round" stroke-linejoin="round"></path>
                <line x1="164.25" y1="47.6202253" x2="164.25" y2="55.7066786" id="Path" stroke="#37C757" stroke-width="0.9" stroke-linecap="round" stroke-linejoin="round"></line>
                <path d="M97.2,97.4857891 C97.2,97.7778 97.1442,98.0707093 97.0317,98.3573291 C96.7464,99.0869069 96.1002,99.7796464 95.0904,100.345698 C92.2788,101.924354 87.72066,101.924354 84.9096,100.345698 C83.89989,99.7796464 83.25261,99.0869069 82.96875,98.3573291 C82.85643,98.0707093 82.8,97.7778 82.8,97.4857891 C82.8,96.4516216 83.50272,95.4174541 84.9096,94.6276771 C87.72066,93.0490217 92.2788,93.0490217 95.0904,94.6276771 C96.4962,95.4174541 97.2,96.4516216 97.2,97.4857891 Z" id="Path" fill="#6FF08C"></path>
                <path d="M97.2,97.4857891 C97.2,97.7778 97.1442,98.0707093 97.0317,98.3573291 C96.7464,99.0869069 96.1002,99.7796464 95.0904,100.345698 C92.2788,101.924354 87.72066,101.924354 84.9096,100.345698 C83.89989,99.7796464 83.25261,99.0869069 82.96875,98.3573291 C82.85643,98.0707093 82.8,97.7778 82.8,97.4857891 C82.8,96.4516216 83.50272,95.4174541 84.9096,94.6276771 C87.72066,93.0490217 92.2788,93.0490217 95.0904,94.6276771 C96.4962,95.4174541 97.2,96.4516216 97.2,97.4857891 Z" id="Path" stroke="#37C757" stroke-width="0.9" stroke-linecap="round"></path>
                <path d="M93.6,91.0336979 C93.6,88.8911471 91.7874,87.1539972 89.55,87.1539972 C87.31323,87.1539972 85.5,88.8911471 85.5,91.0336979 L85.5,97.3168721 L85.50045,97.3168721 L85.5,97.3177706 C85.5,97.427387 85.53177,97.5379018 85.59495,97.6439242 C85.7547,97.9179651 86.11893,98.1776301 86.68638,98.3905734 C88.26849,98.9826815 90.8316,98.9826815 92.4138,98.3905734 C92.9808,98.1776301 93.3444,97.9179651 93.5055,97.6439242 C93.5685,97.5379018 93.6,97.427387 93.6,97.3177706 L93.6,97.3168721 L93.6,91.0336979 Z" id="Path" fill="#000000"></path>
                <path d="M93.6,91.0336979 C93.6,88.8911471 91.7874,87.1539972 89.55,87.1539972 C87.31323,87.1539972 85.5,88.8911471 85.5,91.0336979 L85.5,97.3168721 L85.50045,97.3168721 L85.5,97.3177706 C85.5,97.427387 85.53177,97.5379018 85.59495,97.6439242 C85.7547,97.9179651 86.11893,98.1776301 86.68638,98.3905734 C88.26849,98.9826815 90.8316,98.9826815 92.4138,98.3905734 C92.9808,98.1776301 93.3444,97.9179651 93.5055,97.6439242 C93.5685,97.5379018 93.6,97.427387 93.6,97.3177706 L93.6,97.3168721 L93.6,91.0336979 Z" id="Path" stroke="#37C757" stroke-width="0.9" stroke-linecap="round" stroke-linejoin="round"></path>
                <line x1="89.55" y1="91.6464713" x2="89.55" y2="99.7329247" id="Pathzzzz" stroke="#37C757" stroke-width="0.9" stroke-linecap="round" stroke-linejoin="round"></line>
                <path d="M97.2,10.3321513 C97.2,10.6240723 97.1442,10.9172511 97.0317,11.2036913 C96.7464,11.9326401 96.1002,12.6255593 95.0904,13.1917908 C92.2788,14.7706258 87.72066,14.7706258 84.9096,13.1917908 C83.89989,12.6255593 83.25261,11.9326401 82.96875,11.2036913 C82.85643,10.9172511 82.8,10.6240723 82.8,10.3321513 C82.8,9.29789391 83.50272,8.26408578 84.9096,7.47394944 C87.72066,5.89463814 92.2788,5.89463814 95.0904,7.47394944 C96.4962,8.26408578 97.2,9.29789391 97.2,10.3321513 Z" id="Path" fill="#6FF08C"></path>
                <path d="M97.2,10.3321513 C97.2,10.6240723 97.1442,10.9172511 97.0317,11.2036913 C96.7464,11.9326401 96.1002,12.6255593 95.0904,13.1917908 C92.2788,14.7706258 87.72066,14.7706258 84.9096,13.1917908 C83.89989,12.6255593 83.25261,11.9326401 82.96875,11.2036913 C82.85643,10.9172511 82.8,10.6240723 82.8,10.3321513 C82.8,9.29789391 83.50272,8.26408578 84.9096,7.47394944 C87.72066,5.89463814 92.2788,5.89463814 95.0904,7.47394944 C96.4962,8.26408578 97.2,9.29789391 97.2,10.3321513 Z" id="Path" stroke="#37C757" stroke-width="0.9" stroke-linecap="round"></path>
                <path d="M93.6,3.88046434 C93.6,1.73721277 91.7874,0 89.55,0 C87.31323,0 85.5,1.73721277 85.5,3.88046434 L85.5,10.1635038 L85.50045,10.1635038 C85.50045,10.1635038 85.5,10.1635038 85.5,10.1639531 C85.5,10.2734796 85.53177,10.3833655 85.59495,10.4905559 C85.7547,10.7642375 86.11893,11.0239923 86.68638,11.2362168 C88.26849,11.8285046 90.8316,11.8285046 92.4138,11.2362168 C92.9808,11.0239923 93.3444,10.7642375 93.5055,10.4905559 C93.5685,10.3833655 93.6,10.2734796 93.6,10.1639531 C93.6,10.1635038 93.6,10.1635038 93.6,10.1635038 L93.6,3.88046434 Z" id="Path" fill="#000000"></path>
                <path d="M93.6,3.88046434 C93.6,1.73721277 91.7874,0 89.55,0 C87.31323,0 85.5,1.73721277 85.5,3.88046434 L85.5,10.1635038 L85.50045,10.1635038 C85.50045,10.1635038 85.5,10.1635038 85.5,10.1639531 C85.5,10.2734796 85.53177,10.3833655 85.59495,10.4905559 C85.7547,10.7642375 86.11893,11.0239923 86.68638,11.2362168 C88.26849,11.8285046 90.8316,11.8285046 92.4138,11.2362168 C92.9808,11.0239923 93.3444,10.7642375 93.5055,10.4905559 C93.5685,10.3833655 93.6,10.2734796 93.6,10.1639531 C93.6,10.1635038 93.6,10.1635038 93.6,10.1635038 L93.6,3.88046434 Z" id="Path" stroke="#37C757" stroke-width="0.9" stroke-linecap="round" stroke-linejoin="round"></path>
                <line x1="89.55" y1="3.59397927" x2="89.55" y2="11.6804326" id="Path" stroke="#37C757" stroke-width="0.9" stroke-linecap="round" stroke-linejoin="round"></line>
                <path d="M21.6,53.4599924 C21.6,53.7518235 21.54411,54.0450023 21.43179,54.3314425 C21.14649,55.0603913 20.5002,55.7533105 19.49094,56.319542 C16.67925,57.8983771 12.12084,57.8983771 9.30951,56.319542 C8.2998,55.7533105 7.652601,55.0603913 7.368741,54.3314425 C7.256403,54.0450023 7.2,53.7518235 7.2,53.4599924 C7.2,52.425735 7.902693,51.3917471 9.30951,50.6017006 C12.12084,49.0224163 16.67925,49.0224163 19.49094,50.6017006 C20.89638,51.3917471 21.6,52.425735 21.6,53.4599924 Z" id="Path" fill="#6FF08C"></path>
                <path d="M21.6,53.4599924 C21.6,53.7518235 21.54411,54.0450023 21.43179,54.3314425 C21.14649,55.0603913 20.5002,55.7533105 19.49094,56.319542 C16.67925,57.8983771 12.12084,57.8983771 9.30951,56.319542 C8.2998,55.7533105 7.652601,55.0603913 7.368741,54.3314425 C7.256403,54.0450023 7.2,53.7518235 7.2,53.4599924 C7.2,52.425735 7.902693,51.3917471 9.30951,50.6017006 C12.12084,49.0224163 16.67925,49.0224163 19.49094,50.6017006 C20.89638,51.3917471 21.6,52.425735 21.6,53.4599924 Z" id="Path" stroke="#37C757" stroke-width="0.9" stroke-linecap="round"></path>
                <path d="M18.9,47.0082605 C18.9,44.8649011 17.08704,43.1277512 14.85027,43.1277512 C12.6135,43.1277512 10.8,44.8649011 10.8,47.0082605 L10.8,53.291255 L10.80054,53.291255 C10.80054,53.291255 10.8,53.291255 10.8,53.2917043 C10.8,53.4012308 10.83186,53.5110269 10.89504,53.6183071 C11.05479,53.8919887 11.41902,54.1517435 11.98656,54.363968 C13.56822,54.9562558 16.13232,54.9562558 17.71353,54.363968 C18.28152,54.1517435 18.64485,53.8919887 18.80541,53.6183071 C18.86859,53.5110269 18.9,53.4012308 18.9,53.2917043 C18.9,53.291255 18.9,53.291255 18.9,53.291255 L18.9,47.0082605 Z" id="Path" fill="#000000"></path>
                <path d="M18.9,47.0082605 C18.9,44.8649011 17.08704,43.1277512 14.85027,43.1277512 C12.6135,43.1277512 10.8,44.8649011 10.8,47.0082605 L10.8,53.291255 L10.80054,53.291255 C10.80054,53.291255 10.8,53.291255 10.8,53.2917043 C10.8,53.4012308 10.83186,53.5110269 10.89504,53.6183071 C11.05479,53.8919887 11.41902,54.1517435 11.98656,54.363968 C13.56822,54.9562558 16.13232,54.9562558 17.71353,54.363968 C18.28152,54.1517435 18.64485,53.8919887 18.80541,53.6183071 C18.86859,53.5110269 18.9,53.4012308 18.9,53.2917043 C18.9,53.291255 18.9,53.291255 18.9,53.291255 L18.9,47.0082605 Z" id="Path" stroke="#37C757" stroke-width="0.9" stroke-linecap="round" stroke-linejoin="round"></path>
                <line x1="14.85" y1="47.6202253" x2="14.85" y2="55.7066786" id="Path" stroke="#37C757" stroke-width="0.9" stroke-linecap="round" stroke-linejoin="round"></line>
                <path d="M165.6,211.406845 L165.5955,211.411338 L161.8704,213.560538 L145.0044,223.293932 C144.0981,223.815059 142.7274,223.871664 141.9444,223.42062 L110.8431,205.467795 L108.5328,204.135327 C108.1764,203.93047 108,203.655531 108,203.368012 C108,203.019396 108.2538,202.653709 108.7506,202.367988 L129.3453,190.480901 L165.6,211.406845 Z" id="Path" fill="#6FF08C"></path>
                <path d="M165.6,211.406845 L165.5955,211.411338 L161.8704,213.560538 L145.0044,223.293932 C144.0981,223.815059 142.7274,223.871664 141.9444,223.42062 L110.8431,205.467795 L108.5328,204.135327 C108.1764,203.93047 108,203.655531 108,203.368012 C108,203.019396 108.2538,202.653709 108.7506,202.367988 L129.3453,190.480901 L165.6,211.406845 Z" id="Path" stroke="#37C757" stroke-width="0.9" stroke-linecap="round" stroke-linejoin="round"></path>
                <path d="M165.6,188.330803 L165.6,212.044777 L165.5955,212.044777 L129.6,191.174539 L129.6,167.465058 C129.6,166.417413 130.2318,165.938515 131.0103,166.393154 L164.1861,185.627232 C164.9646,186.078277 165.6,187.287651 165.6,188.330803 Z" id="Path" fill="#000000"></path>
                <path d="M165.6,188.330803 L165.6,212.044777 L165.5955,212.044777 L129.6,191.174539 L129.6,167.465058 C129.6,166.417413 130.2318,165.938515 131.0103,166.393154 L164.1861,185.627232 C164.9646,186.078277 165.6,187.287651 165.6,188.330803 Z" id="Path" stroke="#37C757" stroke-width="0.9" stroke-linecap="round" stroke-linejoin="round"></path>
                <path d="M134.0217,213.539872 L125.6148,208.602643 C124.8525,208.155193 124.9479,207.372604 125.8281,206.855071 L128.5047,205.284502 C129.3849,204.767867 130.716,204.711262 131.4783,205.158713 L139.8852,210.095942 C140.6475,210.543392 140.5521,211.325981 139.6719,211.842615 L136.9962,213.414083 C136.116,213.930717 134.784,213.987323 134.0217,213.539872 Z" id="Path" fill="#000000"></path>
                <path d="M134.0217,213.539872 L125.6148,208.602643 C124.8525,208.155193 124.9479,207.372604 125.8281,206.855071 L128.5047,205.284502 C129.3849,204.767867 130.716,204.711262 131.4783,205.158713 L139.8852,210.095942 C140.6475,210.543392 140.5521,211.325981 139.6719,211.842615 L136.9962,213.414083 C136.116,213.930717 134.784,213.987323 134.0217,213.539872 Z" id="Path" stroke="#37C757" stroke-width="0.9" stroke-linecap="round" stroke-linejoin="round"></path>
                <path d="M165.6,211.86957 L165.6,216.102379 L145.0044,227.793594 C144.0981,228.305736 142.7274,228.362341 141.9444,227.917586 L108.5328,208.949462 C108.1764,208.747301 108,208.472361 108,208.191133 L108,203.958323 C108,204.240451 108.1764,204.510898 108.5328,204.712161 L110.8431,206.023963 L141.9444,223.68298 C142.7274,224.125938 144.0981,224.070231 145.0044,223.557191 L161.8704,213.983729 L165.5955,211.86957 L165.6,211.86957 Z" id="Path" fill="#000000"></path>
                <path d="M165.6,211.86957 L165.6,216.102379 L145.0044,227.793594 C144.0981,228.305736 142.7274,228.362341 141.9444,227.917586 L108.5328,208.949462 C108.1764,208.747301 108,208.472361 108,208.191133 L108,203.958323 C108,204.240451 108.1764,204.510898 108.5328,204.712161 L110.8431,206.023963 L141.9444,223.68298 C142.7274,224.125938 144.0981,224.070231 145.0044,223.557191 L161.8704,213.983729 L165.5955,211.86957 L165.6,211.86957 Z" id="Path" stroke="#37C757" stroke-width="0.9" stroke-linecap="round" stroke-linejoin="round"></path>
                <line x1="165.15" y1="211.597326" x2="165.15" y2="211.593732" id="Path" stroke="#37C757" stroke-width="0.9" stroke-linecap="round" stroke-linejoin="round"></line>
                <line x1="148.5" y1="184.191437" x2="160.2" y2="191.379396" id="Path" stroke="#37C757" stroke-width="0.9" stroke-linecap="round" stroke-linejoin="round"></line>
                <line x1="142.2" y1="180.597458" x2="144.9" y2="182.394448" id="Path" stroke="#37C757" stroke-width="0.9" stroke-linecap="round" stroke-linejoin="round"></line>
                <line x1="153.9" y1="191.379396" x2="142.2" y2="184.191437" id="Path" stroke="#37C757" stroke-width="0.9" stroke-linecap="round" stroke-linejoin="round"></line>
                <line x1="160.2" y1="194.973375" x2="157.5" y2="193.176386" id="Path" stroke="#37C757" stroke-width="0.9" stroke-linecap="round" stroke-linejoin="round"></line>
                <line x1="148.5" y1="191.379396" x2="160.2" y2="198.567355" id="Path" stroke="#37C757" stroke-width="0.9" stroke-linecap="round" stroke-linejoin="round"></line>
                <line x1="142.2" y1="187.785417" x2="144.9" y2="189.582406" id="Pathzzz" stroke="#37C757" stroke-width="0.9" stroke-linecap="round" stroke-linejoin="round"></line>
                <line x1="153.9" y1="198.567355" x2="142.2" y2="191.379396" id="Path" stroke="#37C757" stroke-width="0.9" stroke-linecap="round" stroke-linejoin="round"></line>
                <line x1="160.2" y1="202.161334" x2="157.5" y2="200.364344" id="Path" stroke="#37C757" stroke-width="0.9" stroke-linecap="round" stroke-linejoin="round"></line>
                <polygon id="Path" fill="#000000" points="137.7 180.597458 126.9045 186.886922 116.1 180.597458 126.9045 174.307994"></polygon>
                <polygon id="Path" stroke="#37C757" stroke-width="0.9" stroke-linecap="round" stroke-linejoin="round" points="137.7 180.597458 126.9045 186.886922 116.1 180.597458 126.9045 174.307994"></polygon>
                <polygon id="Path" fill="#37C757" points="126.9 186.890516 126.9 199.465849 116.1 193.172792 116.1 180.597458"></polygon>
                <polygon id="Path" stroke="#37C757" stroke-width="0.9" stroke-linecap="round" stroke-linejoin="round" points="126.9 186.890516 126.9 199.465849 116.1 193.172792 116.1 180.597458"></polygon>
                <polygon id="Path" fill="#6FF08C" points="137.7 180.597458 137.7 193.172792 126.9 199.465849 126.9 186.890516"></polygon>
                <polygon id="Path" stroke="#37C757" stroke-width="0.9" stroke-linecap="round" stroke-linejoin="round" points="137.7 180.597458 137.7 193.172792 126.9 199.465849 126.9 186.890516"></polygon>
                <polyline id="Path" stroke="#37C757" stroke-width="0.9" stroke-linecap="round" stroke-linejoin="round" points="118.8 189.719876 120.0978 192.277891 124.2 189.582406"></polyline>
                <line x1="131.4" y1="189.582406" x2="134.1" y2="191.379396" id="Path" stroke="#37C757" stroke-width="0.9" stroke-linecap="round" stroke-linejoin="round"></line>
                <line x1="131.4" y1="193.176386" x2="134.1" y2="187.785417" id="Path" stroke="#37C757" stroke-width="0.9" stroke-linecap="round" stroke-linejoin="round"></line>
            </g>
        </g>
    </g>
</svg>